<svg width="350" height="350" viewBox="0 0 350 350" fill="none" xmlns="http://www.w3.org/2000/svg">
<g opacity="0.5">
<path d="M115.023 339.947C111.663 339.021 109.305 337.344 107.951 334.914C106.566 332.476 106.353 329.515 107.313 326.031L111.12 312.203L118.01 314.101L114.687 326.171C114.093 328.33 114.161 330.189 114.892 331.751C115.623 333.312 117.036 334.381 119.133 334.958C121.568 335.629 123.716 335.358 125.576 334.146C127.427 332.964 128.747 330.939 129.536 328.072L132.3 318.036L139.19 319.934L135.867 332.004C135.272 334.162 135.341 336.022 136.072 337.583C136.803 339.145 138.232 340.218 140.359 340.804C142.764 341.466 144.896 341.191 146.755 339.978C148.606 338.796 149.927 336.772 150.716 333.904L153.48 323.869L160.37 325.766L153.697 350L147.362 348.255L148.928 342.567C145.593 346.126 141.367 347.201 136.249 345.792C133.69 345.087 131.705 343.927 130.292 342.311C128.841 340.717 128.049 338.774 127.917 336.482C126.314 338.329 124.404 339.545 122.187 340.128C119.97 340.712 117.582 340.651 115.023 339.947Z" fill="#3F3F3F"/>
<path d="M86.5381 329.209L83.186 334.749L76.702 330.826L80.0541 325.285L86.5381 329.209ZM101.082 304.706L88.0711 326.212L81.9564 322.512L94.9676 301.006L101.082 304.706Z" fill="#3F3F3F"/>
<path d="M79.8149 294.332C80.4704 298.159 79.3832 301.573 76.5533 304.574C73.7235 307.576 70.3905 308.85 66.5542 308.397C62.6961 307.968 58.8592 305.954 55.0436 302.356C51.2512 298.78 49.0273 295.079 48.3719 291.253C47.6946 287.449 48.7708 284.047 51.6006 281.045C54.4304 278.044 57.7744 276.758 61.6326 277.187C65.4689 277.64 69.2831 279.654 73.0755 283.23C76.8911 286.828 79.1376 290.529 79.8149 294.332ZM65.617 301.91C67.907 302.091 69.8308 301.356 71.3883 299.704C72.9458 298.052 73.5667 296.088 73.2509 293.812C72.9119 291.515 71.614 289.302 69.3572 287.174C67.1004 285.046 64.827 283.891 62.537 283.71C60.2237 283.506 58.2883 284.231 56.7308 285.883C55.1733 287.535 54.564 289.509 54.903 291.807C55.2188 294.083 56.505 296.284 58.7618 298.412C61.0186 300.54 63.3037 301.706 65.617 301.91Z" fill="#3F3F3F"/>
<path d="M37.6223 235.816L42.4065 243.965L39.447 258.441L41.827 262.495L50.3478 257.492L53.9663 263.655L23.5231 281.531L19.9046 275.367L37.0289 265.312L34.5761 261.134L20.878 256.94L16.4095 249.328L33.8317 255.508L37.6223 235.816Z" fill="#3F3F3F"/>
<path d="M15.3707 198.411L16.1148 198.223L22.5414 223.713C26.2913 221.844 27.4313 217.994 25.9615 212.165C24.9686 208.226 23.3659 205.728 21.1534 204.67L19.732 197.855C22.2532 198.176 24.47 199.448 26.3824 201.67C28.2637 203.9 29.7048 206.999 30.7055 210.968C32.0346 216.24 32.0319 220.676 30.6975 224.278C29.3553 227.848 26.5447 230.173 22.2658 231.252C18.0489 232.316 14.4916 231.613 11.5938 229.145C8.68816 226.645 6.59816 222.868 5.32379 217.814C2.65777 207.24 6.00673 200.772 15.3707 198.411ZM10.0678 216.618C11.4594 222.137 14.2026 224.843 18.2973 224.733L13.6064 206.128C11.8471 206.737 10.6552 207.961 10.0307 209.8C9.36741 211.616 9.37976 213.889 10.0678 216.618Z" fill="#3F3F3F"/>
<path d="M6.37935e-05 167.291C0.00438026 165.852 0.152208 164.541 0.443548 163.358L6.67901 163.377C6.41687 165.487 6.28411 167.102 6.28076 168.221C6.27155 171.291 7.09618 173.548 8.75466 174.992C10.4131 176.436 13.065 177.163 16.7104 177.174L25.6799 177.201L25.6584 184.349L0.524709 184.273L0.544565 177.654L6.97189 177.673C4.70442 176.707 2.98175 175.342 1.80389 173.58C0.594145 171.785 -0.00713031 169.689 6.37935e-05 167.291Z" fill="#3F3F3F"/>
<path d="M5.34467 131.86C7.8315 122.329 12.732 118.493 20.0463 120.351L33.9 123.87L32.2703 130.286L27.11 128.975C30.2765 132.485 31.104 137.216 29.5924 143.167C28.6634 146.824 27.2924 149.429 25.4795 150.981C23.6435 152.494 21.6407 152.976 19.4712 152.424C17.0538 151.81 15.5591 150.226 14.9871 147.672C14.392 145.079 14.5375 141.454 15.4238 136.796L17.2639 127.018L16.8455 126.912C15.3579 126.534 14.0227 126.855 12.84 127.874C11.6342 128.855 10.7164 130.585 10.0865 133.064C9.00008 137.342 9.47024 140.167 11.497 141.539L9.84371 148.048C7.95416 147.304 6.56667 146.078 5.68125 144.368C4.79583 142.658 4.35317 140.764 4.35328 138.685C4.35338 136.607 4.68385 134.331 5.34467 131.86ZM25.3229 140.103C26.1181 136.972 26.1824 134.316 25.5159 132.134C24.8184 129.944 23.6484 128.64 22.0058 128.223L21.169 128.01L19.5532 136.905C19.0469 139.548 18.8957 141.571 19.0998 142.976C19.2729 144.373 19.8553 145.197 20.8471 145.449C21.7459 145.677 22.5886 145.347 23.3753 144.458C24.162 143.569 24.8112 142.117 25.3229 140.103Z" fill="#3F3F3F"/>
<path d="M38.072 64.9408C40.0292 62.0564 42.3756 60.3638 45.1114 59.863C47.8652 59.3357 50.737 60.0866 53.727 62.1158L65.5942 70.1695L61.5811 76.0837L51.2221 69.0535C49.3699 67.7965 47.5872 67.263 45.8739 67.4529C44.1606 67.6429 42.6935 68.6375 41.4725 70.4369C40.054 72.5274 39.6197 74.6481 40.1697 76.7992C40.6931 78.9322 42.1853 80.8337 44.646 82.5037L53.2587 88.3487L49.2456 94.2629L38.8866 87.2328C37.0344 85.9758 35.2517 85.4423 33.5384 85.6322C31.8251 85.8221 30.349 86.83 29.11 88.6559C27.7095 90.7199 27.2842 92.8274 27.8342 94.9784C28.3576 97.1114 29.8498 99.013 32.3105 100.683L40.9231 106.528L36.9101 112.442L16.1127 98.328L19.8026 92.8901L24.6844 96.2031C22.3872 91.9002 22.7289 87.5524 25.7096 83.1597C27.1999 80.9634 28.9373 79.4565 30.9218 78.639C32.8978 77.7772 34.992 77.6525 37.2042 78.2649C35.971 76.1526 35.4348 73.953 35.5955 71.6659C35.7562 69.3788 36.5817 67.1371 38.072 64.9408Z" fill="#3F3F3F"/>
<path d="M57.4015 41.4219L53.2342 36.4654L59.0347 31.5877L63.202 36.5443L57.4015 41.4219ZM75.9212 63.0762L59.7459 43.8376L65.216 39.2378L81.3913 58.4764L75.9212 63.0762Z" fill="#3F3F3F"/>
<path d="M119.57 35.1512L111.239 39.6113L96.8919 36.084L92.7478 38.3028L97.4113 47.0145L91.1105 50.3879L74.4488 19.2623L80.7495 15.889L90.1217 33.3971L94.3927 31.1105L99.1229 17.587L106.904 13.4213L100.043 30.5881L119.57 35.1512Z" fill="#3F3F3F"/>
<path d="M138.144 3.72997C147.786 1.72128 153.4 4.40613 154.987 11.7845L157.993 25.7597L151.522 27.1517L150.402 21.9462C148.666 26.3431 144.796 29.1872 138.794 30.4783C135.105 31.2718 132.163 31.2015 129.967 30.2673C127.795 29.2952 126.474 27.7149 126.003 25.5264C125.479 23.0877 126.233 21.0446 128.266 19.3969C130.324 17.7112 133.636 16.2301 138.203 14.9534L147.778 12.2558L147.688 11.8337C147.365 10.333 146.484 9.27946 145.045 8.67305C143.631 8.02865 141.673 7.97543 139.173 8.51341C134.858 9.44142 132.537 11.1184 132.208 13.5442L125.643 14.9564C125.47 12.933 125.952 11.1447 127.09 9.59148C128.228 8.03829 129.727 6.79976 131.589 5.87587C133.451 4.95198 135.636 4.23668 138.144 3.72997ZM139.641 25.2914C142.799 24.6122 145.206 23.4891 146.865 21.9221C148.516 20.3239 149.164 18.6962 148.807 17.0392L148.626 16.1951L139.941 18.7011C137.348 19.4223 135.469 20.1865 134.301 20.9937C133.127 21.7696 132.648 22.6578 132.863 23.6583C133.058 24.565 133.728 25.1731 134.874 25.4827C136.02 25.7922 137.609 25.7285 139.641 25.2914Z" fill="#3F3F3F"/>
<path d="M236.873 10.4764C240.223 11.4386 242.562 13.1417 243.889 15.5859C245.248 18.0389 245.428 21.002 244.431 24.4753L240.472 38.2608L233.603 36.2879L237.058 24.2544C237.676 22.1028 237.628 20.2424 236.914 18.6733C236.201 17.1041 234.799 16.0194 232.709 15.4191C230.281 14.7218 228.13 14.9692 226.258 16.1615C224.394 17.323 223.051 19.333 222.23 22.1916L219.357 32.1965L212.488 30.2236L215.944 18.1901C216.562 16.0385 216.514 14.1781 215.8 12.6089C215.086 11.0398 213.669 9.95063 211.548 9.34155C209.151 8.65302 207.016 8.90489 205.143 10.0972C203.279 11.2587 201.937 13.2687 201.116 16.1273L198.243 26.1321L191.373 24.1592L198.311 0L204.627 1.814L202.999 7.48497C206.372 3.96222 210.61 2.93351 215.712 4.39883C218.263 5.13149 220.236 6.31362 221.63 7.94521C223.064 9.5549 223.835 11.5063 223.942 13.7994C225.565 11.9699 227.488 10.7755 229.711 10.2163C231.935 9.65703 234.322 9.74374 236.873 10.4764Z" fill="#3F3F3F"/>
<path d="M265.238 21.5255L268.651 16.0219L275.092 20.0163L271.679 25.5198L265.238 21.5255ZM250.427 45.8673L263.673 24.5055L269.746 28.2723L256.501 49.6341L250.427 45.8673Z" fill="#3F3F3F"/>
<path d="M271.579 56.4738C270.966 52.6402 272.09 49.2383 274.953 46.2679C277.815 43.2976 281.162 42.0597 284.993 42.5545C288.847 43.0262 292.661 45.0817 296.437 48.7212C300.19 52.3385 302.373 56.0639 302.987 59.8974C303.622 63.7079 302.509 67.0983 299.647 70.0687C296.784 73.039 293.426 74.2884 289.573 73.8167C285.742 73.3219 281.95 71.266 278.197 67.6487C274.421 64.0092 272.215 60.2843 271.579 56.4738ZM285.859 49.0521C283.572 48.8455 281.64 49.5597 280.064 51.1945C278.489 52.8294 277.847 54.7863 278.137 57.0652C278.451 59.3663 279.725 61.5931 281.958 63.7458C284.191 65.8984 286.452 67.0779 288.74 67.2845C291.051 67.5133 292.994 66.8102 294.57 65.1754C296.145 63.5405 296.776 61.5725 296.462 59.2714C296.171 56.9925 294.909 54.7767 292.676 52.6241C290.443 50.4715 288.17 49.2808 285.859 49.0521Z" fill="#3F3F3F"/>
<path d="M313.129 115.449L308.434 107.248L311.552 92.8048L309.217 88.7251L300.642 93.6346L297.091 87.4318L327.728 69.8909L331.279 76.0937L314.045 85.9605L316.452 90.1651L330.103 94.5094L334.488 102.169L317.135 95.799L313.129 115.449Z" fill="#3F3F3F"/>
<path d="M334.97 153.095L334.223 153.274L328.076 127.716C324.306 129.544 323.124 133.381 324.53 139.226C325.48 143.175 327.055 145.69 329.256 146.773L330.602 153.602C328.085 153.254 325.882 151.959 323.994 149.716C322.137 147.465 320.73 144.35 319.773 140.37C318.502 135.085 318.553 130.648 319.927 127.062C321.308 123.506 324.144 121.212 328.434 120.18C332.663 119.163 336.212 119.904 339.083 122.404C341.961 124.935 344.009 128.735 345.228 133.803C347.778 144.405 344.359 150.836 334.97 153.095ZM340.471 134.947C339.14 129.413 336.427 126.678 332.331 126.742L336.818 145.397C338.584 144.808 339.789 143.597 340.434 141.765C341.117 139.956 341.13 137.683 340.471 134.947Z" fill="#3F3F3F"/>
<path d="M349.999 184.381C349.979 185.82 349.816 187.129 349.512 188.309L343.277 188.222C343.562 186.115 343.713 184.502 343.729 183.382C343.771 180.313 342.971 178.047 341.329 176.585C339.686 175.123 337.043 174.366 333.398 174.315L324.429 174.19L324.529 167.043L349.66 167.394L349.568 174.013L343.141 173.923C345.398 174.914 347.105 176.298 348.264 178.073C349.454 179.88 350.032 181.983 349.999 184.381Z" fill="#3F3F3F"/>
<path d="M344.266 219.752C341.675 229.255 336.733 233.037 329.44 231.099L315.625 227.428L317.325 221.03L322.471 222.398C319.343 218.853 318.567 214.114 320.144 208.18C321.113 204.533 322.512 201.943 324.342 200.411C326.195 198.918 328.202 198.459 330.366 199.034C332.776 199.674 334.254 201.274 334.798 203.835C335.364 206.434 335.179 210.057 334.242 214.705L332.295 224.462L332.712 224.573C334.195 224.967 335.534 224.661 336.728 223.655C337.944 222.688 338.881 220.968 339.538 218.495C340.671 214.23 340.232 211.4 338.22 210.005L339.945 203.515C341.826 204.279 343.2 205.521 344.067 207.241C344.933 208.96 345.355 210.859 345.332 212.937C345.31 215.016 344.954 217.287 344.266 219.752ZM324.38 211.291C323.55 214.412 323.457 217.068 324.099 219.257C324.773 221.454 325.928 222.77 327.566 223.206L328.401 223.427L330.114 214.552C330.649 211.914 330.822 209.892 330.634 208.486C330.476 207.087 329.903 206.256 328.914 205.993C328.017 205.755 327.171 206.076 326.375 206.957C325.578 207.837 324.913 209.282 324.38 211.291Z" fill="#3F3F3F"/>
<path d="M310.808 286.308C308.82 289.171 306.455 290.838 303.714 291.309C300.954 291.806 298.091 291.024 295.123 288.962L283.345 280.779L287.423 274.909L297.704 282.052C299.542 283.329 301.319 283.882 303.034 283.711C304.75 283.54 306.228 282.561 307.468 280.775C308.909 278.701 309.367 276.585 308.841 274.428C308.34 272.289 306.869 270.371 304.427 268.675L295.879 262.736L299.956 256.866L310.238 264.009C312.076 265.286 313.853 265.839 315.568 265.668C317.283 265.497 318.771 264.505 320.029 262.693C321.452 260.644 321.901 258.542 321.374 256.385C320.874 254.246 319.403 252.328 316.961 250.631L308.413 244.692L312.49 238.823L333.132 253.164L329.383 258.561L324.537 255.195C326.787 259.522 326.398 263.866 323.369 268.226C321.855 270.406 320.101 271.894 318.108 272.689C316.123 273.529 314.027 273.631 311.822 272.995C313.032 275.12 313.544 277.326 313.358 279.611C313.173 281.896 312.323 284.129 310.808 286.308Z" fill="#3F3F3F"/>
<path d="M291.222 309.614L295.335 314.616L289.482 319.43L285.369 314.428L291.222 309.614ZM272.941 287.758L288.905 307.173L283.385 311.713L267.421 292.298L272.941 287.758Z" fill="#3F3F3F"/>
<path d="M228.989 315.204L237.368 310.835L251.676 314.519L255.844 312.346L251.276 303.584L257.614 300.28L273.934 331.586L267.596 334.89L258.416 317.28L254.12 319.52L249.243 332.991L241.417 337.071L248.464 319.98L228.989 315.204Z" fill="#3F3F3F"/>
<path d="M210.072 346.42C200.409 348.323 194.824 345.577 193.318 338.181L190.466 324.174L196.952 322.853L198.014 328.07C199.799 323.693 203.699 320.891 209.715 319.666C213.412 318.913 216.354 319.015 218.54 319.973C220.7 320.969 222.004 322.564 222.451 324.758C222.949 327.202 222.172 329.237 220.121 330.862C218.044 332.525 214.716 333.97 210.136 335.196L200.532 337.789L200.618 338.212C200.924 339.716 201.793 340.779 203.225 341.401C204.632 342.061 206.589 342.136 209.096 341.625C213.42 340.745 215.76 339.093 216.115 336.671L222.695 335.331C222.846 337.356 222.345 339.139 221.19 340.68C220.035 342.22 218.522 343.442 216.65 344.346C214.778 345.249 212.586 345.94 210.072 346.42ZM208.811 324.843C205.647 325.488 203.227 326.584 201.551 328.133C199.882 329.713 199.217 331.334 199.555 332.995L199.728 333.841L208.439 331.43C211.039 330.737 212.928 329.993 214.104 329.199C215.286 328.436 215.776 327.553 215.571 326.55C215.386 325.642 214.723 325.026 213.58 324.704C212.438 324.382 210.848 324.428 208.811 324.843Z" fill="#3F3F3F"/>
</g>
</svg>
