<svg width="119" height="160" viewBox="0 0 119 160" fill="none" xmlns="http://www.w3.org/2000/svg">
<path d="M72.8453 158.883C71.3739 158.863 70.2322 158.435 69.4201 157.598C68.5945 156.761 68.1921 155.589 68.2127 154.084L68.2948 148.108L71.3118 148.149L71.2401 153.365C71.2273 154.297 71.4534 155.04 71.9184 155.593C72.3833 156.145 73.0748 156.428 73.9927 156.44C75.0591 156.454 75.9075 156.119 76.538 155.434C77.1683 154.763 77.4919 153.808 77.5089 152.569L77.5685 148.232L80.5854 148.273L80.5138 153.489C80.501 154.421 80.7271 155.164 81.1921 155.717C81.657 156.269 82.3552 156.552 83.2866 156.564C84.3395 156.578 85.1812 156.243 85.8117 155.558C86.4419 154.887 86.7656 153.932 86.7826 152.693L86.8421 148.356L89.8591 148.397L89.7153 158.869L86.9413 158.832L86.9751 156.374C85.992 158.159 84.38 159.037 82.1392 159.007C81.0188 158.992 80.084 158.733 79.3349 158.23C78.572 157.74 78.0416 157.04 77.7436 156.13C77.2855 157.044 76.6347 157.734 75.7912 158.203C74.9476 158.671 73.9657 158.898 72.8453 158.883Z" fill="#3F3F3F"/>
<path d="M58.9576 157.408L58.1966 160L55.1236 159.121L55.8845 156.529L58.9576 157.408ZM62.2085 145.978L59.2549 156.037L56.3569 155.208L59.3105 145.149L62.2085 145.978Z" fill="#3F3F3F"/>
<path d="M51.3259 143.672C52.0055 145.144 51.9293 146.635 51.0974 148.145C50.2654 149.655 49.042 150.522 47.4273 150.748C45.806 150.985 44.0229 150.581 42.0779 149.537C40.1447 148.5 38.8384 147.245 38.1588 145.773C37.4727 144.313 37.5457 142.828 38.3776 141.318C39.2096 139.808 40.4362 138.934 42.0574 138.697C43.6722 138.472 45.4461 138.878 47.3793 139.915C49.3243 140.959 50.6398 142.211 51.3259 143.672ZM46.346 148.234C47.3004 148.063 48.0066 147.563 48.4645 146.732C48.9224 145.9 48.9643 145.043 48.5904 144.16C48.2046 143.27 47.4365 142.517 46.2861 141.9C45.1357 141.282 44.0833 141.058 43.1289 141.229C42.1627 141.393 41.4506 141.89 40.9927 142.721C40.5348 143.552 40.4988 144.413 40.8846 145.302C41.2585 146.186 42.0207 146.936 43.1711 147.553C44.3215 148.171 45.3798 148.398 46.346 148.234Z" fill="#3F3F3F"/>
<path d="M26.1771 123.417L29.0015 126.198L29.3389 132.345L30.744 133.728L33.6899 130.813L35.8262 132.916L25.301 143.331L23.1647 141.228L29.0851 135.37L27.6371 133.944L21.5941 133.698L18.956 131.101L26.7321 131.755L26.1771 123.417Z" fill="#3F3F3F"/>
<path d="M11.9997 109.354L12.283 109.199L17.6663 118.777C18.994 117.623 19.0422 115.951 17.811 113.761C16.9793 112.281 16.0547 111.446 15.0373 111.257L13.7192 108.664C14.7827 108.524 15.8249 108.799 16.846 109.489C17.8552 110.186 18.7789 111.28 19.6172 112.772C20.7305 114.752 21.21 116.539 21.0556 118.132C20.8946 119.714 19.9996 120.951 18.3705 121.843C16.765 122.722 15.2373 122.819 13.7875 122.135C12.3311 121.439 11.0692 120.141 10.0017 118.242C7.76855 114.269 8.43453 111.306 11.9997 109.354ZM11.8079 117.253C12.9736 119.327 14.386 120.123 16.045 119.642L12.1157 112.651C11.4637 113.084 11.1099 113.704 11.0544 114.512C10.9804 115.314 11.2316 116.228 11.8079 117.253Z" fill="#3F3F3F"/>
<path d="M1.91306 97.3856C1.75955 96.8054 1.67845 96.2617 1.66979 95.7544L4.21686 95.0978C4.33752 95.9756 4.45755 96.6401 4.57695 97.0914C4.90445 98.329 5.48457 99.1503 6.3173 99.5554C7.15004 99.9604 8.31093 99.971 9.79999 99.5872L13.4639 98.6427L14.2263 101.524L3.95966 104.171L3.25349 101.502L5.87893 100.825C4.84919 100.677 3.99886 100.311 3.32794 99.7269C2.64055 99.1329 2.16892 98.3525 1.91306 97.3856Z" fill="#3F3F3F"/>
<path d="M0.000495614 80.5389C0.00897192 76.4349 1.6062 74.3759 4.79218 74.3619L10.8266 74.3353L10.8391 77.0935L8.59135 77.1033C10.2568 78.1886 11.0953 80.0104 11.1068 82.5687C11.1139 84.141 10.829 85.3348 10.2522 86.1501C9.66182 86.9522 8.89413 87.3553 7.94914 87.3595C6.89614 87.3641 6.1177 86.8812 5.61382 85.9107C5.09637 84.9269 4.77245 83.4493 4.64205 81.4779L4.36012 77.3418L4.17788 77.3426C3.52988 77.3455 3.01809 77.6142 2.64249 78.1488C2.25334 78.6702 2.06117 79.4639 2.06598 80.5298C2.07428 82.3686 2.56521 83.459 3.53877 83.8012L3.5514 86.5993C2.70042 86.4964 2.00358 86.1464 1.46088 85.5492C0.918176 84.952 0.536931 84.2341 0.317143 83.3956C0.0973564 82.5571 -0.00819291 81.6049 0.000495614 80.5389ZM9.03771 81.7783C9.03164 80.4326 8.77702 79.3544 8.27385 78.5438C7.75719 77.7333 7.14111 77.3296 6.42561 77.3327L6.06111 77.3343L6.34132 81.0906C6.41387 82.2096 6.56613 83.0417 6.79809 83.587C7.01656 84.1323 7.34179 84.4041 7.77379 84.4022C8.16528 84.4004 8.47479 84.1792 8.7023 83.7385C8.92982 83.2978 9.04162 82.6444 9.03771 81.7783Z" fill="#3F3F3F"/>
<path d="M6.41428 48.4548C6.89685 47.0827 7.66852 46.1482 8.72929 45.6513C9.7945 45.1418 11.0477 45.1339 12.4888 45.6277L18.2087 47.5875L17.2193 50.4008L12.2263 48.6901C11.3335 48.3842 10.5482 48.362 9.87039 48.6234C9.19255 48.8848 8.7031 49.4435 8.40205 50.2994C8.0523 51.2939 8.10718 52.1942 8.56671 53.0004C9.01349 53.8023 9.82991 54.4065 11.016 54.8128L15.1672 56.2351L14.1778 59.0485L9.18477 57.3378C8.29203 57.0319 7.50673 57.0097 6.82889 57.2711C6.15104 57.5325 5.65938 58.0975 5.3539 58.966C5.00858 59.9478 5.06568 60.8419 5.52521 61.6481C5.97198 62.45 6.7884 63.0541 7.97448 63.4605L12.1257 64.8828L11.1362 67.6962L1.11202 64.2616L2.02182 61.6749L4.37483 62.4811C2.96745 60.9974 2.63121 59.2109 3.36613 57.1213C3.73359 56.0765 4.27722 55.2826 4.99703 54.7393C5.7085 54.1791 6.54877 53.9029 7.51783 53.9105C6.78394 53.1936 6.32468 52.3663 6.14004 51.4285C5.95541 50.4908 6.04682 49.4995 6.41428 48.4548Z" fill="#3F3F3F"/>
<path d="M12.2084 35.9106L9.95621 34.3812L11.7698 31.7796L14.022 33.309L12.2084 35.9106ZM22.1753 42.5577L13.4336 36.6213L15.1438 34.1679L23.8856 40.1043L22.1753 42.5577Z" fill="#3F3F3F"/>
<path d="M37.5841 25.6637L34.687 28.3706L28.4515 28.527L27.0104 29.8736L29.8781 32.8636L27.6869 34.9109L17.4409 24.228L19.6321 22.1808L25.3955 28.1898L26.8808 26.8021L27.304 20.8473L30.0099 18.3191L29.1241 25.9721L37.5841 25.6637Z" fill="#3F3F3F"/>
<path d="M43.0555 9.97337C46.7603 8.10998 49.3451 8.57449 50.8101 11.3669L53.5849 16.656L51.1033 17.9242L50.0698 15.9541C49.8503 17.9119 48.5897 19.479 46.2879 20.6553C44.8733 21.3783 43.6669 21.6722 42.6687 21.5372C41.6763 21.3842 40.9628 20.8935 40.5283 20.0653C40.0441 19.1423 40.1247 18.2384 40.7702 17.3533C41.4214 16.4503 42.6062 15.4922 44.3246 14.4789L47.9259 12.3458L47.8421 12.1861C47.5442 11.6181 47.0685 11.291 46.4152 11.2048C45.7676 11.1006 44.9643 11.2936 44.0052 11.7837C42.3509 12.6292 41.5913 13.5576 41.7265 14.5688L39.209 15.8554C38.9138 15.061 38.9118 14.2893 39.203 13.5403C39.4942 12.7913 39.9677 12.1291 40.6237 11.5538C41.2796 10.9785 42.0902 10.4517 43.0555 9.97337ZM46.0575 18.4774C47.2683 17.8586 48.1245 17.1434 48.6261 16.3318C49.1215 15.5085 49.2047 14.7832 48.8757 14.1561L48.7081 13.8367L45.4484 15.7952C44.4725 16.369 43.7915 16.882 43.4055 17.3344C43.0133 17.7749 42.9165 18.1845 43.1152 18.5631C43.2952 18.9063 43.6358 19.0773 44.1369 19.0763C44.638 19.0752 45.2782 18.8756 46.0575 18.4774Z" fill="#3F3F3F"/>
<path d="M87.0768 1.13117C88.5482 1.14942 89.6903 1.57668 90.5033 2.41294C91.3297 3.24937 91.7333 4.42036 91.7141 5.92591L91.6381 11.9015L88.621 11.864L88.6875 6.64792C88.6993 5.71528 88.4725 4.9729 88.007 4.42078C87.5415 3.86866 86.8498 3.58691 85.9318 3.57553C84.8654 3.5623 84.0173 3.89824 83.3876 4.58336C82.7579 5.25515 82.4353 6.21059 82.4195 7.44966L82.3643 11.7864L79.3472 11.749L79.4137 6.5329C79.4255 5.60026 79.1987 4.85788 78.7332 4.30576C78.2677 3.75364 77.5692 3.4718 76.6378 3.46025C75.5849 3.44719 74.7435 3.78322 74.1137 4.46833C73.4841 5.14012 73.1615 6.09556 73.1457 7.33464L73.0905 11.6714L70.0734 11.634L70.2068 1.16178L72.9808 1.19619L72.9495 3.65436C73.9308 1.86759 75.5419 0.988098 77.7828 1.01589C78.9032 1.02979 79.8382 1.28791 80.5879 1.79025C81.3512 2.27944 81.8824 2.97895 82.1813 3.88879C82.6385 2.975 83.2886 2.28348 84.1316 1.81422C84.9747 1.34495 85.9564 1.11727 87.0768 1.13117Z" fill="#3F3F3F"/>
<path d="M100.966 2.59231L101.724 0L104.798 0.876023L104.04 3.46833L100.966 2.59231ZM97.7264 14.0262L100.67 3.96419L103.569 4.79031L100.625 14.8523L97.7264 14.0262Z" fill="#3F3F3F"/>
<path d="M108.611 16.3216C107.93 14.8503 108.005 13.3593 108.835 11.8484C109.666 10.3376 110.888 9.46871 112.503 9.24178C114.124 9.00315 115.907 9.40486 117.854 10.4469C119.788 11.4826 121.095 12.7361 121.776 14.2074C122.464 15.667 122.392 17.1522 121.562 18.663C120.732 20.1739 119.506 21.0486 117.885 21.2872C116.27 21.5142 114.496 21.1098 112.562 20.0741C110.616 19.032 109.299 17.7812 108.611 16.3216ZM113.587 11.7549C112.632 11.9261 111.927 12.4275 111.47 13.259C111.013 14.0905 110.972 14.9477 111.346 15.8306C111.733 16.7198 112.502 17.4726 113.653 18.0889C114.804 18.7053 115.857 18.9278 116.811 18.7566C117.777 18.5917 118.488 18.0935 118.945 17.262C119.403 16.4305 119.438 15.5701 119.051 14.6809C118.676 13.798 117.913 13.0484 116.762 12.4321C115.611 11.8157 114.553 11.59 113.587 11.7549Z" fill="#3F3F3F"/>
<path d="M133.78 36.5516L130.953 33.7738L130.61 27.6268L129.203 26.245L126.26 29.1629L124.122 27.062L134.637 16.6366L136.775 18.7376L130.86 24.6019L132.31 26.026L138.353 26.2668L140.994 28.8614L133.217 28.2146L133.78 36.5516Z" fill="#3F3F3F"/>
<path d="M147.972 50.6008L147.688 50.7562L142.296 41.1838C140.969 42.3387 140.923 44.0108 142.156 46.2001C142.989 47.6791 143.915 48.5129 144.932 48.7014L146.253 51.2926C145.19 51.434 144.147 51.16 143.125 50.4706C142.115 49.7747 141.191 48.6814 140.351 47.1909C139.235 45.2112 138.754 43.4247 138.907 41.8315C139.066 40.25 139.96 39.0124 141.588 38.1188C143.193 37.2382 144.721 37.1393 146.171 37.8221C147.628 38.5165 148.891 39.8128 149.961 41.711C152.198 45.682 151.535 48.6453 147.972 50.6008ZM148.156 42.7017C146.988 40.6288 145.575 39.8341 143.916 40.3174L147.852 47.3046C148.504 46.8708 148.857 46.2501 148.912 45.4425C148.985 44.6401 148.733 43.7265 148.156 42.7017Z" fill="#3F3F3F"/>
<path d="M158.07 62.5597C158.224 63.1397 158.306 63.6834 158.315 64.1907L155.769 64.8497C155.647 63.9721 155.526 63.3077 155.407 62.8566C155.078 61.6192 154.497 60.7985 153.664 60.3942C152.831 59.99 151.67 59.9805 150.181 60.3658L146.518 61.3138L145.753 58.4332L156.017 55.7767L156.726 58.4447L154.101 59.124C155.131 59.2707 155.981 59.6359 156.653 60.2198C157.341 60.8131 157.813 61.5931 158.07 62.5597Z" fill="#3F3F3F"/>
<path d="M160 79.4046C159.995 83.5086 158.4 85.5691 155.214 85.5862L149.18 85.6186L149.164 82.8605L151.412 82.8484C149.746 81.7648 148.905 79.9438 148.891 77.3855C148.883 75.8133 149.166 74.6192 149.742 73.8033C150.332 73.0007 151.099 72.5968 152.044 72.5917C153.097 72.5861 153.876 73.0682 154.381 74.0382C154.899 75.0215 155.225 76.4988 155.357 78.4701L155.643 82.6059L155.825 82.6049C156.473 82.6014 156.985 82.3322 157.36 81.7972C157.749 81.2754 157.94 80.4816 157.934 79.4156C157.924 77.5769 157.432 76.4869 156.458 76.1457L156.443 73.3476C157.294 73.4496 157.991 73.799 158.534 74.3957C159.078 74.9924 159.46 75.7099 159.68 76.5481C159.901 77.3864 160.007 78.3385 160 79.4046ZM150.961 78.1739C150.969 79.5197 151.224 80.5976 151.728 81.4077C152.246 82.2177 152.862 82.6208 153.578 82.617L153.942 82.615L153.658 78.859C153.585 77.7401 153.431 76.9081 153.199 76.3631C152.98 75.8179 152.654 75.5465 152.222 75.5488C151.831 75.5509 151.522 75.7725 151.295 76.2134C151.068 76.6543 150.956 77.3078 150.961 78.1739Z" fill="#3F3F3F"/>
<path d="M153.618 111.495C153.137 112.867 152.366 113.803 151.306 114.301C150.241 114.811 148.988 114.82 147.546 114.328L141.824 112.374L142.811 109.559L147.806 111.265C148.699 111.57 149.484 111.592 150.162 111.33C150.839 111.068 151.328 110.508 151.628 109.652C151.977 108.657 151.921 107.757 151.461 106.951C151.013 106.15 150.196 105.547 149.01 105.141L144.857 103.723L145.844 100.909L150.838 102.615C151.732 102.92 152.517 102.941 153.194 102.679C153.872 102.417 154.363 101.852 154.668 100.983C155.012 100 154.954 99.1065 154.494 98.3007C154.046 97.4993 153.229 96.8959 152.043 96.4907L147.89 95.0724L148.877 92.2581L158.904 95.6829L157.997 98.2706L155.643 97.4666C157.052 98.9489 157.39 100.735 156.657 102.825C156.291 103.871 155.748 104.665 155.029 105.209C154.318 105.77 153.478 106.047 152.509 106.04C153.243 106.756 153.704 107.583 153.889 108.521C154.075 109.458 153.984 110.45 153.618 111.495Z" fill="#3F3F3F"/>
<path d="M147.836 124.045L150.09 125.572L148.279 128.175L146.025 126.648L147.836 124.045ZM137.863 117.407L146.61 123.335L144.902 125.79L136.155 119.862L137.863 117.407Z" fill="#3F3F3F"/>
<path d="M122.471 134.316L125.365 131.607L131.6 131.444L133.04 130.096L130.169 127.109L132.359 125.059L142.615 135.732L140.426 137.782L134.657 131.778L133.173 133.167L132.756 139.123L130.052 141.653L130.93 134L122.471 134.316Z" fill="#3F3F3F"/>
<path d="M117.015 150.012C113.312 151.879 110.727 151.417 109.259 148.626L106.479 143.339L108.959 142.069L109.995 144.038C110.212 142.08 111.471 140.512 113.772 139.333C115.186 138.609 116.392 138.314 117.39 138.448C118.383 138.6 119.097 139.09 119.532 139.918C120.017 140.84 119.937 141.744 119.293 142.63C118.643 143.533 117.459 144.493 115.741 145.508L112.142 147.644L112.226 147.804C112.525 148.371 113.001 148.698 113.654 148.784C114.302 148.887 115.105 148.694 116.063 148.202C117.717 147.355 118.476 146.426 118.339 145.415L120.856 144.126C121.151 144.92 121.154 145.692 120.864 146.441C120.573 147.191 120.101 147.853 119.445 148.429C118.79 149.005 117.98 149.533 117.015 150.012ZM114.004 141.511C112.794 142.131 111.939 142.847 111.438 143.659C110.943 144.483 110.861 145.208 111.191 145.835L111.358 146.154L114.616 144.192C115.592 143.618 116.272 143.104 116.658 142.651C117.049 142.21 117.146 141.801 116.947 141.422C116.766 141.079 116.426 140.908 115.924 140.91C115.423 140.912 114.783 141.112 114.004 141.511Z" fill="#3F3F3F"/>
</svg>
