<svg width="60" height="120" viewBox="0 0 60 120" fill="none" xmlns="http://www.w3.org/2000/svg">
<path d="M-5.36603 119.162C-6.46956 119.148 -7.32586 118.826 -7.93493 118.198C-8.55411 117.571 -8.85595 116.692 -8.84045 115.563L-8.77892 111.081L-6.51619 111.112L-6.5699 115.024C-6.5795 115.723 -6.40994 116.28 -6.06122 116.694C-5.71251 117.109 -5.19392 117.321 -4.50548 117.33C-3.70568 117.341 -3.06936 117.089 -2.59652 116.576C-2.12381 116.072 -1.88107 115.356 -1.86832 114.427L-1.82366 111.174L0.439068 111.205L0.385365 115.117C0.375763 115.816 0.545319 116.373 0.894039 116.787C1.24276 117.202 1.7664 117.414 2.46496 117.423C3.25464 117.434 3.88591 117.182 4.35875 116.669C4.83145 116.165 5.07418 115.449 5.08694 114.52L5.13159 111.267L7.39434 111.298L7.28651 119.152L5.206 119.124L5.23132 117.28C4.49398 118.62 3.28502 119.278 1.60441 119.255C0.764114 119.244 0.0630302 119.05 -0.498844 118.673C-1.07098 118.305 -1.46881 117.78 -1.69234 117.098C-2.0359 117.783 -2.524 118.301 -3.15664 118.652C-3.78927 119.003 -4.52573 119.174 -5.36603 119.162Z" fill="#3F3F3F" fill-opacity="0.25"/>
<path d="M-15.7818 118.056L-16.3525 120L-18.6573 119.341L-18.0866 117.397L-15.7818 118.056ZM-13.3436 109.483L-15.5588 117.028L-17.7323 116.406L-15.5172 108.862L-13.3436 109.483Z" fill="#3F3F3F" fill-opacity="0.25"/>
<path d="M-21.5056 107.754C-20.9959 108.858 -21.053 109.976 -21.677 111.108C-22.301 112.241 -23.2185 112.892 -24.4296 113.061C-25.6455 113.239 -26.9828 112.936 -28.4416 112.153C-29.8914 111.375 -30.8712 110.434 -31.3809 109.33C-31.8955 108.235 -31.8408 107.121 -31.2168 105.988C-30.5928 104.856 -29.6729 104.201 -28.457 104.023C-27.2459 103.854 -25.9154 104.158 -24.4655 104.937C-23.0068 105.719 -22.0201 106.659 -21.5056 107.754ZM-25.2405 111.175C-24.5247 111.047 -23.9951 110.672 -23.6517 110.049C-23.3082 109.425 -23.2767 108.782 -23.5572 108.12C-23.8465 107.453 -24.4226 106.888 -25.2854 106.425C-26.1482 105.962 -26.9375 105.794 -27.6533 105.922C-28.378 106.045 -28.912 106.418 -29.2555 107.041C-29.5989 107.664 -29.6259 108.31 -29.3366 108.977C-29.0561 109.639 -28.4845 110.202 -27.6217 110.665C-26.7589 111.128 -25.9651 111.298 -25.2405 111.175Z" fill="#3F3F3F" fill-opacity="0.25"/>
<path d="M-40.3672 92.5629L-38.2488 94.6484L-37.9958 99.2588L-36.942 100.296L-34.7326 98.1099L-33.1304 99.6872L-41.0242 107.499L-42.6265 105.921L-38.1862 101.527L-39.2722 100.458L-43.8044 100.273L-45.783 98.3254L-39.9509 98.8161L-40.3672 92.5629Z" fill="#3F3F3F" fill-opacity="0.25"/>
<path d="M-51.0002 82.0158L-50.7877 81.8994L-46.7503 89.0826C-45.7545 88.2174 -45.7183 86.9634 -46.6418 85.3205C-47.2655 84.2107 -47.959 83.5847 -48.722 83.4425L-49.7106 81.4982C-48.913 81.3929 -48.1313 81.5991 -47.3655 82.117C-46.6086 82.6396 -45.9158 83.4602 -45.2871 84.5788C-44.4521 86.0644 -44.0925 87.4046 -44.2083 88.5993C-44.329 89.7854 -45.0003 90.7129 -46.2222 91.3819C-47.4263 92.0412 -48.572 92.1143 -49.6594 91.6011C-50.7516 91.0792 -51.6981 90.1061 -52.4987 88.6817C-54.1736 85.7018 -53.6741 83.4798 -51.0002 82.0158ZM-51.144 87.94C-50.2698 89.4955 -49.2105 90.0926 -47.9662 89.7313L-50.9133 84.488C-51.4022 84.8129 -51.6675 85.2782 -51.7092 85.8838C-51.7647 86.4856 -51.5763 87.171 -51.144 87.94Z" fill="#3F3F3F" fill-opacity="0.25"/>
<path d="M-58.5652 73.0392C-58.6803 72.6041 -58.7412 72.1963 -58.7477 71.8158L-56.8374 71.3234C-56.7469 71.9817 -56.6568 72.4801 -56.5673 72.8185C-56.3217 73.7467 -55.8866 74.3627 -55.262 74.6665C-54.6375 74.9703 -53.7668 74.9783 -52.65 74.6904L-49.9021 73.982L-49.3303 76.1431L-57.0303 78.128L-57.5599 76.1265L-55.5908 75.6189C-56.3631 75.5081 -57.0009 75.2336 -57.504 74.7952C-58.0196 74.3497 -58.3733 73.7644 -58.5652 73.0392Z" fill="#3F3F3F" fill-opacity="0.25"/>
<path d="M-59.9996 60.4042C-59.9933 57.3262 -58.7953 55.7819 -56.4059 55.7714L-51.88 55.7515L-51.8707 57.8201L-53.5565 57.8275C-52.3074 58.6415 -51.6786 60.0078 -51.6699 61.9265C-51.6646 63.1057 -51.8782 64.0011 -52.3108 64.6126C-52.7536 65.2141 -53.3294 65.5165 -54.0381 65.5196C-54.8279 65.5231 -55.4117 65.1609 -55.7896 64.433C-56.1777 63.6952 -56.4207 62.587 -56.5185 61.1084L-56.7299 58.0064L-56.8666 58.007C-57.3526 58.0091 -57.7364 58.2106 -58.0181 58.6116C-58.31 59.0027 -58.4541 59.5979 -58.4505 60.3974C-58.4443 61.7764 -58.0761 62.5943 -57.3459 62.8509L-57.3365 64.9495C-57.9747 64.8723 -58.4973 64.6098 -58.9043 64.1619C-59.3114 63.714 -59.5973 63.1756 -59.7621 62.5467C-59.927 61.9179 -60.0061 61.2037 -59.9996 60.4042ZM-53.2217 61.3337C-53.2263 60.3244 -53.4172 59.5158 -53.7946 58.9078C-54.1821 58.2999 -54.6442 57.9972 -55.1808 57.9995L-55.4542 58.0007L-55.244 60.818C-55.1896 61.6572 -55.0754 62.2813 -54.9014 62.6902C-54.7376 63.0992 -54.4937 63.303 -54.1697 63.3016C-53.876 63.3003 -53.6439 63.1344 -53.4733 62.8039C-53.3026 62.4733 -53.2188 61.9833 -53.2217 61.3337Z" fill="#3F3F3F" fill-opacity="0.25"/>
<path d="M-55.1893 36.3411C-54.8274 35.312 -54.2486 34.6112 -53.453 34.2385C-52.6541 33.8563 -51.7142 33.8504 -50.6334 34.2208L-46.3434 35.6906L-47.0856 37.8006L-50.8303 36.5176C-51.4999 36.2882 -52.0888 36.2715 -52.5972 36.4675C-53.1056 36.6636 -53.4727 37.0826 -53.6985 37.7246C-53.9608 38.4704 -53.9196 39.1456 -53.575 39.7503C-53.2399 40.3517 -52.6276 40.8048 -51.738 41.1096L-48.6246 42.1764L-49.3667 44.2864L-53.1114 43.0033C-53.781 42.7739 -54.37 42.7572 -54.8783 42.9533C-55.3867 43.1494 -55.7555 43.5731 -55.9846 44.2245C-56.2436 44.9609 -56.2007 45.6314 -55.8561 46.2361C-55.521 46.8375 -54.9087 47.2906 -54.0191 47.5954L-50.9057 48.6621L-51.6478 50.7721L-59.166 48.1962L-58.4836 46.2561L-56.7189 46.8608C-57.7744 45.7481 -58.0266 44.4081 -57.4754 42.841C-57.1998 42.0574 -56.7921 41.4619 -56.2522 41.0545C-55.7186 40.6343 -55.0884 40.4271 -54.3616 40.4329C-54.912 39.8952 -55.2565 39.2747 -55.395 38.5714C-55.5334 37.8681 -55.4649 37.1246 -55.1893 36.3411Z" fill="#3F3F3F" fill-opacity="0.25"/>
<path d="M-50.8437 26.9329L-52.5328 25.7859L-51.1727 23.8347L-49.4835 24.9817L-50.8437 26.9329ZM-43.3685 31.9183L-49.9248 27.466L-48.6421 25.6259L-42.0858 30.0782L-43.3685 31.9183Z" fill="#3F3F3F" fill-opacity="0.25"/>
<path d="M-31.812 19.2478L-33.9848 21.2779L-38.6613 21.3953L-39.7422 22.4052L-37.5914 24.6477L-39.2348 26.1831L-46.9193 18.171L-45.2759 16.6356L-40.9534 21.1424L-39.8394 20.1016L-39.522 15.6355L-37.4926 13.7393L-38.1569 19.4791L-31.812 19.2478Z" fill="#3F3F3F" fill-opacity="0.25"/>
<path d="M-27.7084 7.48003C-24.9298 6.08248 -22.9911 6.43087 -21.8924 8.52519L-19.8113 12.492L-21.6725 13.4432L-22.4477 11.9656C-22.6123 13.4339 -23.5578 14.6092 -25.2841 15.4915C-26.345 16.0337 -27.2498 16.2542 -27.9985 16.1529C-28.7428 16.0381 -29.2779 15.6701 -29.6038 15.0489C-29.9669 14.3568 -29.9065 13.6788 -29.4224 13.015C-28.9339 12.3377 -28.0453 11.6191 -26.7565 10.8592L-24.0556 9.25934L-24.1184 9.13954C-24.3419 8.71358 -24.6986 8.46826 -25.1886 8.40359C-25.6743 8.32544 -26.2768 8.47018 -26.9961 8.83778C-28.2369 9.47191 -28.8065 10.1682 -28.7051 10.9266L-30.5932 11.8916C-30.8146 11.2957 -30.8161 10.7169 -30.5977 10.1552C-30.3794 9.59344 -30.0242 9.09683 -29.5322 8.66535C-29.0403 8.23387 -28.4323 7.83876 -27.7084 7.48003ZM-25.4569 13.858C-24.5488 13.3939 -23.9066 12.8575 -23.5304 12.2489C-23.1589 11.6314 -23.0965 11.0874 -23.3433 10.6171L-23.469 10.3775L-25.9137 11.8464C-26.6457 12.2767 -27.1564 12.6615 -27.4459 13.0008C-27.74 13.3312 -27.8126 13.6384 -27.6636 13.9223C-27.5286 14.1797 -27.2732 14.308 -26.8973 14.3072C-26.5215 14.3064 -26.0413 14.1567 -25.4569 13.858Z" fill="#3F3F3F" fill-opacity="0.25"/>
<path d="M5.30761 0.848376C6.41115 0.862064 7.26776 1.18251 7.87745 1.80971C8.49726 2.43703 8.79999 3.31527 8.78561 4.44443L8.72855 8.92609L6.46578 8.89803L6.51559 4.98594C6.5245 4.28646 6.35439 3.72968 6.00525 3.31559C5.65612 2.9015 5.13733 2.69018 4.44888 2.68164C3.64906 2.67172 3.01299 2.92368 2.54066 3.43752C2.06846 3.94136 1.82645 4.65794 1.81461 5.58725L1.77319 8.83982L-0.489567 8.81176L-0.439762 4.89967C-0.430859 4.20019 -0.600971 3.64341 -0.950104 3.22932C-1.29924 2.81523 -1.82308 2.60385 -2.52166 2.59519C-3.31134 2.58539 -3.94236 2.83741 -4.41469 3.35125C-4.88689 3.85509 -5.12891 4.57167 -5.14074 5.50098L-5.18215 8.75355L-7.44492 8.72549L-7.34491 0.871337L-5.26439 0.897143L-5.28786 2.74077C-4.55187 1.40069 -3.34356 0.741073 -1.66293 0.761919C-0.82262 0.772341 -0.121338 0.965931 0.440914 1.34269C1.01341 1.70958 1.41176 2.23421 1.63597 2.9166C1.97885 2.23125 2.46643 1.71261 3.09871 1.36066C3.731 1.00872 4.46729 0.837954 5.30761 0.848376Z" fill="#3F3F3F" fill-opacity="0.25"/>
<path d="M15.7244 1.94423L16.2932 0L18.5986 0.657017L18.0299 2.60125L15.7244 1.94423ZM13.2948 10.5196L15.5025 2.97314L17.6766 3.59273L15.4689 11.1392L13.2948 10.5196Z" fill="#3F3F3F" fill-opacity="0.25"/>
<path d="M21.4585 12.2412C20.9477 11.1377 21.0037 10.0194 21.6266 8.88631C22.2494 7.75319 23.1663 7.10153 24.3772 6.93134C25.5929 6.75236 26.9306 7.05364 28.3901 7.83518C29.8408 8.61195 30.8215 9.55208 31.3323 10.6556C31.8479 11.7502 31.7943 12.8642 31.1715 13.9973C30.5487 15.1304 29.6293 15.7865 28.4136 15.9654C27.2027 16.1356 25.8719 15.8323 24.4213 15.0556C22.9618 14.274 21.9742 13.3359 21.4585 12.2412ZM25.19 8.81615C24.4744 8.94456 23.9451 9.32059 23.6023 9.94425C23.2595 10.5679 23.2287 11.2108 23.5098 11.873C23.7998 12.5399 24.3764 13.1044 25.2397 13.5667C26.103 14.0289 26.8924 14.1959 27.6081 14.0675C28.3326 13.9438 28.8663 13.5702 29.2091 12.9465C29.5519 12.3228 29.5783 11.6776 29.2883 11.0106C29.0072 10.3485 28.435 9.78631 27.5717 9.32406C26.7085 8.8618 25.9146 8.6925 25.19 8.81615Z" fill="#3F3F3F" fill-opacity="0.25"/>
<path d="M40.3353 27.4137L38.2148 25.3304L37.9572 20.7201L36.9024 19.6837L34.6951 21.8722L33.0913 20.2965L40.9774 12.4775L42.5812 14.0532L38.1453 18.4514L39.2324 19.5195L43.7648 19.7001L45.7453 21.646L39.9128 21.1609L40.3353 27.4137Z" fill="#3F3F3F" fill-opacity="0.25"/>
<path d="M50.9787 37.9506L50.7664 38.0672L46.7218 30.8879C45.7269 31.754 45.6919 33.0081 46.617 34.6501C47.2419 35.7593 47.9359 36.3846 48.6991 36.5261L49.6897 38.4694C48.8921 38.5755 48.1102 38.37 47.3439 37.8529C46.5865 37.331 45.8929 36.5111 45.2631 35.3931C44.4266 33.9084 44.0657 32.5685 44.1803 31.3736C44.2998 30.1875 44.9702 29.2593 46.1913 28.5891C47.3948 27.9286 48.5405 27.8544 49.6283 28.3665C50.7211 28.8874 51.6685 29.8596 52.4705 31.2832C54.1484 34.2615 53.6512 36.484 50.9787 37.9506ZM51.1167 32.0263C50.2408 30.4716 49.1809 29.8756 47.937 30.2381L50.8893 35.4784C51.3779 35.1531 51.6428 34.6876 51.6839 34.0819C51.7387 33.4801 51.5497 32.7949 51.1167 32.0263Z" fill="#3F3F3F" fill-opacity="0.25"/>
<path d="M58.5526 46.9198C58.6682 47.3548 58.7294 47.7625 58.7363 48.143L56.8265 48.6373C56.7354 47.979 56.6448 47.4807 56.5549 47.1424C56.3084 46.2144 55.8727 45.5988 55.2478 45.2957C54.623 44.9925 53.7523 44.9854 52.6358 45.2743L49.8886 45.9854L49.3146 43.8249L57.0126 41.8325L57.5442 43.8335L55.5757 44.343C56.3481 44.453 56.9861 44.727 57.4897 45.1648C58.0057 45.6098 58.36 46.1948 58.5526 46.9198Z" fill="#3F3F3F" fill-opacity="0.25"/>
<path d="M59.9997 59.5534C59.9964 62.6314 58.8 64.1768 56.4106 64.1897L51.8847 64.214L51.8733 62.1454L53.5591 62.1363C52.3093 61.3236 51.679 59.9578 51.6685 58.0392C51.662 56.86 51.8747 55.9644 52.3067 55.3525C52.7489 54.7505 53.3244 54.4476 54.0331 54.4438C54.8229 54.4395 55.4071 54.8012 55.7857 55.5287C56.1745 56.2661 56.4186 57.3741 56.5178 58.8526L56.7324 61.9544L56.8691 61.9537C57.3551 61.9511 57.7387 61.7491 58.02 61.3479C58.3115 60.9566 58.455 60.3612 58.4506 59.5617C58.443 58.1827 58.074 57.3652 57.3436 57.1093L57.332 55.0107C57.9703 55.0872 58.4932 55.3492 58.9007 55.7968C59.3081 56.2443 59.5946 56.7824 59.7601 57.4111C59.9256 58.0398 60.0054 58.7539 59.9997 59.5534ZM53.2209 58.6304C53.2264 59.6397 53.4182 60.4482 53.7962 61.0558C54.1843 61.6633 54.6467 61.9656 55.1833 61.9627L55.4566 61.9613L55.2437 59.1442C55.1884 58.3051 55.0736 57.6811 54.8992 57.2723C54.735 56.8634 54.4909 56.6599 54.1669 56.6616C53.8732 56.6632 53.6413 56.8293 53.471 57.16C53.3007 57.4907 53.2173 57.9809 53.2209 58.6304Z" fill="#3F3F3F" fill-opacity="0.25"/>
<path d="M55.2133 83.6212C54.8524 84.6506 54.2744 85.352 53.4792 85.7255C52.6807 86.1084 51.7408 86.1152 50.6595 85.7459L46.3681 84.2802L47.1082 82.1695L50.8542 83.4489C51.5239 83.6777 52.1129 83.6938 52.6211 83.4972C53.1293 83.3007 53.496 82.8813 53.7211 82.2391C53.9827 81.4931 53.9409 80.8178 53.5956 80.2135C53.2599 79.6124 52.6472 79.1599 51.7573 78.856L48.6428 77.7923L49.3828 75.6816L53.1288 76.961C53.7986 77.1897 54.3876 77.2058 54.8958 77.0093C55.404 76.8127 55.7723 76.3886 56.0008 75.737C56.259 75.0004 56.2155 74.3299 55.8703 73.7255C55.5346 73.1244 54.9218 72.6719 54.032 72.368L50.9175 71.3043L51.6575 69.1936L59.1782 71.7622L58.4978 73.7029L56.7324 73.1C57.7891 74.2117 58.0426 75.5514 57.493 77.119C57.2182 77.9029 56.811 78.4988 56.2716 78.9067C55.7384 79.3274 55.1084 79.5352 54.3816 79.5302C54.9325 80.0673 55.2776 80.6875 55.4168 81.3907C55.556 82.0938 55.4881 82.8373 55.2133 83.6212Z" fill="#3F3F3F" fill-opacity="0.25"/>
<path d="M50.8772 93.0335L52.5674 94.1789L51.2092 96.1314L49.5189 94.986L50.8772 93.0335ZM43.397 88.0554L49.9577 92.5014L48.6769 94.3427L42.1161 89.8967L43.397 88.0554Z" fill="#3F3F3F" fill-opacity="0.25"/>
<path d="M31.8531 100.737L34.0238 98.7049L38.7003 98.583L39.7802 97.5721L37.6271 95.3316L39.269 93.7946L46.9614 101.799L45.3196 103.336L40.9926 98.8337L39.8796 99.8756L39.5667 104.342L37.5391 106.24L38.1978 100.5L31.8531 100.737Z" fill="#3F3F3F" fill-opacity="0.25"/>
<path d="M27.7612 112.509C24.984 113.909 23.045 113.563 21.9442 111.469L19.8591 107.505L21.7194 106.552L22.496 108.028C22.6591 106.56 23.6035 105.384 25.3289 104.5C26.3893 103.957 27.2939 103.735 28.0426 103.836C28.7871 103.95 29.3226 104.317 29.6491 104.938C30.0129 105.63 29.9531 106.308 29.4697 106.972C28.9819 107.65 28.094 108.369 26.806 109.131L24.1066 110.733L24.1696 110.853C24.3935 111.279 24.7504 111.524 25.2405 111.588C25.7263 111.665 26.3286 111.52 27.0475 111.152C28.2877 110.516 28.8567 109.82 28.7545 109.061L30.6416 108.095C30.8636 108.69 30.8657 109.269 30.6479 109.831C30.4301 110.393 30.0754 110.89 29.5839 111.322C29.0923 111.754 28.4848 112.149 27.7612 112.509ZM25.5033 106.133C24.5957 106.598 23.9541 107.135 23.5785 107.744C23.2076 108.362 23.1457 108.906 23.3929 109.376L23.5189 109.616L25.9621 108.144C26.6937 107.713 27.204 107.328 27.4932 106.988C27.787 106.658 27.8593 106.35 27.71 106.067C27.5747 105.809 27.3192 105.681 26.9433 105.682C26.5675 105.684 26.0875 105.834 25.5033 106.133Z" fill="#3F3F3F" fill-opacity="0.25"/>
</svg>
