<svg width="180" height="180" viewBox="0 0 180 180" fill="none" xmlns="http://www.w3.org/2000/svg">
<path d="M59.5393 163.381C57.8611 162.907 56.6872 162.059 56.0175 160.839C55.3325 159.615 55.2356 158.132 55.7269 156.392L57.6769 149.486L61.118 150.459L59.4159 156.487C59.1115 157.565 59.1397 158.496 59.5003 159.28C59.8609 160.063 60.5647 160.603 61.6117 160.899C62.828 161.243 63.9034 161.115 64.8377 160.514C65.7677 159.929 66.4348 158.921 66.8392 157.489L68.2543 152.477L71.6955 153.449L69.9933 159.478C69.689 160.555 69.7171 161.486 70.0778 162.27C70.4384 163.054 71.1499 163.596 72.2123 163.896C73.4132 164.235 74.4808 164.105 75.4151 163.504C76.3451 162.919 77.0123 161.911 77.4166 160.479L78.8318 155.467L82.2729 156.44L78.8556 168.542L75.6916 167.648L76.4938 164.807C74.8137 166.577 72.6957 167.1 70.1399 166.378C68.862 166.016 67.8723 165.429 67.171 164.616C66.4499 163.813 66.0601 162.838 66.0016 161.691C65.1936 162.61 64.234 163.212 63.1229 163.496C62.0118 163.781 60.8172 163.742 59.5393 163.381Z" fill="#3F3F3F"/>
<path d="M49.6764 159.432L48.0005 162.205L44.7562 160.242L46.432 157.469L49.6764 159.432ZM56.9473 147.169L50.4426 157.932L47.3831 156.081L53.8878 145.318L56.9473 147.169Z" fill="#3F3F3F"/>
<path d="M47.3043 142.474C47.6248 144.391 47.0744 146.097 45.6531 147.594C44.2318 149.09 42.5622 149.722 40.6441 149.488C38.7151 149.265 36.7997 148.25 34.898 146.442C33.0079 144.645 31.9027 142.788 31.5822 140.872C31.2507 138.967 31.7956 137.266 33.2169 135.77C34.6382 134.273 36.3134 133.636 38.2424 133.858C40.1605 134.092 42.0645 135.108 43.9546 136.905C45.8563 138.713 46.9728 140.569 47.3043 142.474ZM40.1878 146.239C41.3329 146.334 42.2966 145.97 43.0789 145.146C43.8612 144.322 44.1755 143.341 44.022 142.201C43.8568 141.051 43.2119 139.941 42.0871 138.872C40.9623 137.802 39.8274 137.22 38.6822 137.125C37.5255 137.018 36.556 137.377 35.7737 138.201C34.9915 139.024 34.6829 140.012 34.848 141.162C35.0016 142.302 35.6408 143.406 36.7655 144.475C37.8903 145.545 39.031 146.133 40.1878 146.239Z" fill="#3F3F3F"/>
<path d="M28.0115 114.63L30.3797 118.722L28.8548 125.958L30.0329 127.993L34.3107 125.515L36.1019 128.61L20.8182 137.466L19.027 134.371L27.6241 129.389L26.4099 127.291L19.5705 125.152L17.3585 121.33L26.0548 124.474L28.0115 114.63Z" fill="#3F3F3F"/>
<path d="M18.1994 97.9487L18.572 97.8556L21.7563 110.616C23.6347 109.685 24.2098 107.76 23.4816 104.842C22.9896 102.87 22.1908 101.619 21.0851 101.087L20.3822 97.6755C21.6433 97.8387 22.7508 98.4773 23.7049 99.5912C24.6435 100.709 25.3607 102.262 25.8565 104.249C26.5151 106.888 26.5084 109.107 25.8363 110.908C25.1604 112.693 23.7514 113.853 21.6092 114.388C19.4981 114.916 17.7191 114.561 16.2723 113.322C14.8216 112.069 13.7805 110.176 13.149 107.646C11.8281 102.352 13.5115 99.1199 18.1994 97.9487ZM15.524 107.053C16.2136 109.816 17.5828 111.173 19.6316 111.122L17.3073 101.808C16.4263 102.111 15.8285 102.722 15.5138 103.641C15.1797 104.549 15.1831 105.687 15.524 107.053Z" fill="#3F3F3F"/>
<path d="M11.2003 85.2687C11.2049 84.5487 11.281 83.8932 11.4287 83.3021L14.5487 83.3218C14.414 84.377 14.3449 85.1846 14.3413 85.7446C14.3316 87.2805 14.7405 88.4112 15.5679 89.1364C16.3953 89.8617 17.721 90.2301 19.545 90.2416L24.0329 90.27L24.0103 93.846L11.4345 93.7663L11.4555 90.4544L14.6714 90.4748C13.5385 89.9876 12.6788 89.3021 12.0924 88.4184C11.4901 87.5186 11.1927 86.4687 11.2003 85.2687Z" fill="#3F3F3F"/>
<path d="M14.0768 68.7679C15.3613 64.0102 17.8293 62.1121 21.4808 63.0737L28.397 64.895L27.5545 68.098L24.9783 67.4196C26.5477 69.1896 26.9417 71.5601 26.1603 74.5311C25.68 76.357 24.9831 77.6542 24.0695 78.4229C23.1445 79.1721 22.1405 79.404 21.0574 79.1188C19.8506 78.801 19.1094 78.0019 18.8341 76.7216C18.5473 75.4217 18.6354 73.6084 19.0985 71.2816L20.0605 66.3976L19.8517 66.3426C19.109 66.147 18.4396 66.3016 17.8436 66.8065C17.2362 67.2918 16.7697 68.1534 16.4441 69.3913C15.8824 71.5267 16.1057 72.9422 17.1139 73.6379L16.2592 76.8874C15.317 76.5069 14.628 75.887 14.1923 75.0277C13.7565 74.1684 13.5431 73.2187 13.5519 72.1787C13.5607 71.1387 13.7357 70.0017 14.0768 68.7679ZM24.0372 72.9792C24.4482 71.4164 24.4917 70.0876 24.1674 68.993C23.8277 67.8943 23.2479 67.2369 22.4278 67.021L22.0101 66.911L21.1641 71.354C20.8996 72.6742 20.8154 73.6861 20.9116 74.3898C20.9922 75.0894 21.2802 75.5044 21.7753 75.6348C22.224 75.7529 22.647 75.5913 23.0443 75.15C23.4417 74.7086 23.7726 73.985 24.0372 72.9792Z" fill="#3F3F3F"/>
<path d="M30.0199 37.9842C30.9984 36.5405 32.1718 35.6932 33.5403 35.4423C34.9177 35.1781 36.3544 35.5537 37.8505 36.5689L43.7885 40.5982L41.7822 43.5584L36.5989 40.0411C35.6721 39.4122 34.7802 39.1454 33.9232 39.2406C33.0662 39.3358 32.3325 39.8338 31.7221 40.7344C31.0129 41.7807 30.7961 42.8421 31.0716 43.9185C31.3339 44.9859 32.0807 45.9374 33.312 46.7729L37.6215 49.6973L35.6152 52.6574L30.4319 49.1402C29.5051 48.5113 28.6132 48.2444 27.7562 48.3397C26.8992 48.4349 26.161 48.9394 25.5416 49.8533C24.8414 50.8864 24.6291 51.9411 24.9047 53.0175C25.1669 54.085 25.9137 55.0365 27.145 55.872L31.4545 58.7963L29.4482 61.7565L19.0419 54.695L20.8866 51.9732L23.3293 53.6308C22.1793 51.4776 22.3494 49.3017 23.8395 47.1031C24.5846 46.0038 25.4534 45.2495 26.4459 44.8402C27.4342 44.4087 28.4818 44.346 29.5885 44.6523C28.9712 43.5954 28.7025 42.4946 28.7825 41.35C28.8624 40.2054 29.2749 39.0835 30.0199 37.9842Z" fill="#3F3F3F"/>
<path d="M36.8751 29.8553L34.7729 27.3899L37.6568 24.9278L39.7591 27.3932L36.8751 29.8553ZM46.2161 40.6252L38.0564 31.0557L40.7761 28.7339L48.9358 38.3034L46.2161 40.6252Z" fill="#3F3F3F"/>
<path d="M67.1982 27.3029L63.041 29.5548L55.8558 27.8242L53.7877 28.9445L56.1404 33.2928L52.9961 34.9961L44.5905 19.4602L47.7348 17.757L52.463 26.4959L54.5943 25.3414L56.93 18.5626L60.8129 16.4592L57.4199 25.0663L67.1982 27.3029Z" fill="#3F3F3F"/>
<path d="M74.2995 12.7074C79.1197 11.6819 81.9342 13.0133 82.743 16.7017L84.2749 23.6877L81.0399 24.3979L80.4693 21.7958C79.6094 23.9994 77.6791 25.4306 74.6786 26.0894C72.8345 26.4942 71.3621 26.4653 70.2615 26.0026C69.173 25.5208 68.5088 24.7329 68.2689 23.6389C68.0016 22.4198 68.375 21.3959 69.389 20.5672C70.4152 19.7194 72.0694 18.9713 74.3515 18.3229L79.1371 16.9528L79.0908 16.7418C78.9263 15.9916 78.4835 15.4664 77.7624 15.166C77.0536 14.8466 76.074 14.8241 74.8238 15.0986C72.6672 15.5721 71.5091 16.416 71.3495 17.6305L68.0677 18.351C67.9768 17.339 68.2144 16.4432 68.7806 15.6636C69.3467 14.8841 70.0947 14.2612 71.0244 13.795C71.9541 13.3288 73.0458 12.9662 74.2995 12.7074ZM75.0919 23.4923C76.6703 23.1458 77.8728 22.5788 78.6993 21.7912C79.5223 20.988 79.843 20.1723 79.6614 19.344L79.5689 18.922L75.2287 20.1943C73.9331 20.5606 72.994 20.947 72.4115 21.3534C71.8256 21.7441 71.5875 22.1895 71.6972 22.6896C71.7966 23.1429 72.1332 23.4457 72.7072 23.5982C73.2812 23.7506 74.0761 23.7154 75.0919 23.4923Z" fill="#3F3F3F"/>
<path d="M120.393 16.627C122.072 17.0995 123.247 17.9454 123.918 19.1648C124.604 20.3884 124.702 21.8705 124.212 23.6108L122.268 30.5184L118.826 29.5496L120.523 23.5199C120.826 22.4418 120.797 21.5111 120.436 20.7279C120.075 19.9447 119.37 19.4057 118.323 19.111C117.106 18.7685 116.031 18.898 115.097 19.4995C114.168 20.0855 113.501 21.0948 113.098 22.5271L111.687 27.5403L108.245 26.5714L109.942 20.5417C110.245 19.4636 110.216 18.533 109.855 17.7498C109.494 16.9666 108.782 16.4254 107.719 16.1263C106.518 15.7882 105.45 15.9199 104.516 16.5213C103.587 17.1074 102.92 18.1166 102.517 19.549L101.106 24.5622L97.6639 23.5933L101.071 11.4877L104.236 12.3785L103.436 15.2201C105.115 13.4487 107.233 12.9228 109.79 13.6424C111.068 14.0022 112.058 14.5884 112.76 15.401C113.482 16.2026 113.873 17.1768 113.932 18.3238C114.739 17.4042 115.699 16.8015 116.81 16.5158C117.921 16.2302 119.115 16.2672 120.393 16.627Z" fill="#3F3F3F"/>
<path d="M130.26 20.5702L131.933 17.7956L135.18 19.7555L133.507 22.5301L130.26 20.5702ZM123.001 32.8404L129.496 22.0709L132.557 23.9191L126.063 34.6887L123.001 32.8404Z" fill="#3F3F3F"/>
<path d="M132.65 37.5251C132.327 35.609 132.876 33.902 134.296 32.4039C135.716 30.9058 137.385 30.2729 139.303 30.505C141.232 30.7255 143.149 31.7389 145.052 33.5451C146.944 35.3402 148.051 37.1958 148.373 39.1119C148.707 41.0163 148.163 42.7175 146.744 44.2156C145.324 45.7137 143.649 46.3525 141.72 46.1319C139.802 45.8998 137.897 44.8861 136.005 43.0909C134.101 41.2848 132.983 39.4295 132.65 37.5251ZM139.762 33.7533C138.617 33.6591 137.654 34.0243 136.872 34.8488C136.091 35.6734 135.778 36.6553 135.932 37.7946C136.098 38.9449 136.745 40.0543 137.87 41.1225C138.996 42.1908 140.132 42.7721 141.277 42.8662C142.434 42.9714 143.403 42.6117 144.184 41.7872C144.966 40.9627 145.273 39.9752 145.107 38.8249C144.952 37.6856 144.312 36.5818 143.186 35.5135C142.061 34.4452 140.919 33.8585 139.762 33.7533Z" fill="#3F3F3F"/>
<path d="M151.97 65.3507L149.597 61.2609L151.115 54.0239L149.935 51.9894L145.66 54.4722L143.865 51.3789L159.141 42.5082L160.935 45.6015L152.343 50.5913L153.559 52.6881L160.4 54.8207L162.616 58.6406L153.917 55.5054L151.97 65.3507Z" fill="#3F3F3F"/>
<path d="M161.798 82.0226L161.425 82.116L158.228 69.3585C156.351 70.2914 155.777 72.2168 156.509 75.1346C157.003 77.1056 157.803 78.3565 158.909 78.8873L159.615 82.298C158.354 82.136 157.246 81.4985 156.29 80.3855C155.351 79.2686 154.632 77.7168 154.134 75.7303C153.473 73.0918 153.478 70.872 154.148 69.0707C154.822 67.285 156.23 66.1235 158.372 65.5862C160.482 65.0567 162.261 65.4103 163.71 66.6471C165.161 67.8995 166.204 69.7905 166.838 72.3203C168.165 77.6127 166.484 80.8468 161.798 82.0226ZM164.464 72.916C163.772 70.1534 162.401 68.7982 160.352 68.8503L162.686 78.1624C163.567 77.859 164.164 77.2473 164.478 76.3272C164.811 75.4189 164.806 74.2818 164.464 72.916Z" fill="#3F3F3F"/>
<path d="M168.81 94.695C168.806 95.415 168.73 96.0706 168.583 96.6618L165.463 96.6451C165.597 95.5898 165.665 94.7822 165.668 94.2222C165.676 92.6862 165.266 91.556 164.438 90.8315C163.61 90.1071 162.284 89.74 160.46 89.7302L155.972 89.7062L155.991 86.1303L168.567 86.1976L168.549 89.5095L165.333 89.4923C166.467 89.9784 167.327 90.663 167.914 91.5461C168.518 92.4454 168.816 93.495 168.81 94.695Z" fill="#3F3F3F"/>
<path d="M165.949 111.199C164.669 115.958 162.203 117.858 158.551 116.9L151.633 115.086L152.472 111.882L155.049 112.558C153.478 110.789 153.082 108.419 153.86 105.447C154.339 103.621 155.034 102.323 155.947 101.553C156.871 100.803 157.875 100.57 158.958 100.855C160.166 101.171 160.908 101.97 161.184 103.25C161.472 104.549 161.386 106.363 160.925 108.69L159.968 113.575L160.177 113.63C160.92 113.824 161.589 113.669 162.184 113.164C162.791 112.678 163.257 111.816 163.581 110.578C164.141 108.442 163.916 107.026 162.907 106.332L163.759 103.081C164.701 103.461 165.391 104.08 165.828 104.939C166.264 105.798 166.479 106.747 166.471 107.787C166.463 108.827 166.289 109.964 165.949 111.199ZM155.985 106.997C155.575 108.56 155.533 109.889 155.858 110.983C156.199 112.082 156.78 112.739 157.6 112.954L158.018 113.063L158.859 108.62C159.123 107.299 159.206 106.287 159.109 105.583C159.028 104.884 158.739 104.469 158.244 104.339C157.795 104.222 157.372 104.384 156.975 104.825C156.579 105.267 156.248 105.991 155.985 106.997Z" fill="#3F3F3F"/>
<path d="M150.036 141.998C149.059 143.443 147.887 144.291 146.519 144.544C145.142 144.809 143.704 144.435 142.207 143.421L136.265 139.398L138.269 136.436L143.456 139.948C144.383 140.576 145.275 140.842 146.132 140.746C146.989 140.65 147.722 140.151 148.332 139.25C149.04 138.203 149.256 137.141 148.979 136.065C148.716 134.998 147.968 134.047 146.736 133.213L142.423 130.293L144.427 127.331L149.614 130.843C150.541 131.471 151.433 131.737 152.29 131.641C153.147 131.545 153.885 131.039 154.503 130.125C155.202 129.091 155.414 128.036 155.137 126.96C154.874 125.893 154.126 124.942 152.894 124.108L148.581 121.188L150.585 118.225L160.998 125.277L159.156 128L156.712 126.345C157.864 128.497 157.696 130.673 156.208 132.873C155.464 133.973 154.596 134.729 153.604 135.139C152.616 135.571 151.568 135.635 150.461 135.33C151.08 136.386 151.349 137.487 151.271 138.631C151.192 139.776 150.78 140.898 150.036 141.998Z" fill="#3F3F3F"/>
<path d="M143.189 150.135L145.294 152.598L142.413 155.063L140.308 152.599L143.189 150.135ZM133.838 139.374L142.007 148.935L139.29 151.26L131.12 141.698L133.838 139.374Z" fill="#3F3F3F"/>
<path d="M112.868 152.716L117.024 150.46L124.21 152.183L126.277 151.061L123.92 146.715L127.063 145.009L135.484 160.536L132.341 162.243L127.605 153.508L125.474 154.665L123.145 161.446L119.265 163.553L122.649 154.943L112.868 152.716Z" fill="#3F3F3F"/>
<path d="M105.782 167.319C100.963 168.349 98.1471 167.02 97.3347 163.333L95.7959 156.348L99.0302 155.635L99.6034 158.236C100.461 156.032 102.39 154.599 105.39 153.937C107.234 153.53 108.706 153.558 109.807 154.019C110.896 154.5 111.561 155.287 111.802 156.381C112.07 157.6 111.698 158.624 110.685 159.454C109.659 160.303 108.006 161.052 105.725 161.703L100.94 163.078L100.987 163.289C101.152 164.039 101.595 164.564 102.317 164.863C103.026 165.182 104.005 165.204 105.255 164.928C107.412 164.452 108.569 163.607 108.727 162.393L112.008 161.669C112.1 162.681 111.864 163.577 111.298 164.357C110.733 165.137 109.985 165.761 109.056 166.228C108.127 166.695 107.036 167.058 105.782 167.319ZM104.979 156.534C103.401 156.882 102.199 157.451 101.373 158.239C100.551 159.043 100.231 159.859 100.414 160.687L100.507 161.109L104.846 159.833C106.141 159.465 107.079 159.078 107.662 158.671C108.247 158.279 108.485 157.834 108.375 157.334C108.275 156.881 107.938 156.578 107.364 156.426C106.79 156.274 105.995 156.31 104.979 156.534Z" fill="#3F3F3F"/>
<path d="M81.8977 109.906C81.8977 114.433 77.312 118.1 71.6617 118.1C66.0115 118.1 61.4258 114.433 61.4258 109.906C61.4258 105.383 66.0115 101.712 71.6617 101.712C77.312 101.712 81.8977 105.383 81.8977 109.906ZM118.747 101.712C118.747 106.239 114.161 109.906 108.511 109.906C102.861 109.906 98.2752 106.239 98.2752 101.712C98.2752 97.1852 102.861 93.5186 108.511 93.5186C114.161 93.5186 118.747 97.1852 118.747 101.712Z" fill="#3F3F3F"/>
<path fill-rule="evenodd" clip-rule="evenodd" d="M114.653 101.712V64.8401H118.747V101.712H114.653ZM81.8976 68.9369V109.905H77.8032V68.9369H81.8976Z" fill="#3F3F3F"/>
<path d="M77.8032 68.5482C77.8032 67.5326 78.1802 66.5531 78.8611 65.7999C79.542 65.0467 80.4782 64.5734 81.4882 64.4718L114.243 61.1944C114.813 61.1371 115.388 61.1999 115.931 61.3787C116.475 61.5575 116.975 61.8483 117.399 62.2324C117.824 62.6165 118.163 63.0853 118.395 63.6086C118.627 64.132 118.747 64.6982 118.747 65.2707V68.9374L77.8032 73.0342V68.5482Z" fill="#3F3F3F"/>
</svg>
