<svg width="120" height="120" viewBox="0 0 120 120" fill="none" xmlns="http://www.w3.org/2000/svg">
<rect x="1" y="1" width="118" height="118" rx="59" stroke="#3F3F3F" stroke-width="2"/>
<path fill-rule="evenodd" clip-rule="evenodd" d="M60.0002 75.0002C48.177 75.0002 37.6662 66.2739 35.1519 53.9927C35.0522 53.5054 34.7662 53.0783 34.3569 52.8054C33.9476 52.5325 33.4485 52.4362 32.9694 52.5377C32.4903 52.6391 32.0704 52.93 31.8021 53.3463C31.5339 53.7627 31.4392 54.2704 31.5389 54.7577C32.1617 57.7946 33.2154 60.6451 34.6232 63.2466L23.4645 72.6099C22.6183 73.3199 22.508 74.5814 23.218 75.4276C23.928 76.2737 25.1895 76.3841 26.0356 75.6741L36.7756 66.6622C38.7853 69.4259 41.2321 71.809 43.9926 73.7111L36.7587 86.2406C36.2064 87.1972 36.5341 88.4203 37.4907 88.9726C38.4473 89.5249 39.6705 89.1972 40.2228 88.2406L47.4344 75.7497C50.6953 77.3883 54.2706 78.4078 58.0002 78.6779V92.2502C58.0002 93.3548 58.8956 94.2502 60.0002 94.2502C61.1048 94.2502 62.0002 93.3548 62.0002 92.2502V78.6779C65.8008 78.4026 69.4412 77.3492 72.7521 75.6553L80.0182 88.2406C80.5704 89.1972 81.7936 89.5249 82.7502 88.9726C83.7068 88.4203 84.0345 87.1972 83.4823 86.2406L76.1795 73.5919C78.9113 71.6807 81.3305 69.2961 83.3157 66.5366L94.2053 75.6741C95.0514 76.3841 96.313 76.2737 97.023 75.4276C97.733 74.5814 97.6226 73.3199 96.7765 72.6099L85.452 63.1076C86.8223 60.5436 87.8498 57.7406 88.4615 54.7577C88.5612 54.2704 88.4665 53.7627 88.1983 53.3463C87.93 52.93 87.5102 52.6391 87.031 52.5377C86.5519 52.4362 86.0528 52.5325 85.6435 52.8054C85.2342 53.0783 84.9482 53.5054 84.8485 53.9927C82.3305 66.2739 71.8197 75.0002 60.0002 75.0002Z" fill="#3F3F3F"/>
</svg>
