<svg width="120" height="120" viewBox="0 0 120 120" fill="none" xmlns="http://www.w3.org/2000/svg">
<rect width="120" height="120" rx="60" fill="#3F3F3F"/>
<path fill-rule="evenodd" clip-rule="evenodd" d="M60 51.7503C48.1768 51.7503 37.666 60.4766 35.1517 72.7578C35.0519 73.2451 34.766 73.6722 34.3567 73.9451C33.9474 74.2179 33.4482 74.3142 32.9691 74.2128C32.49 74.1114 32.0702 73.8205 31.8019 73.4041C31.5336 72.9878 31.439 72.4801 31.5387 71.9928C32.2984 68.2882 33.6993 64.8611 35.6019 61.8248C35.5449 61.7909 35.4899 61.7519 35.4375 61.7079L23.9468 52.066C23.4179 51.6223 23.349 50.8338 23.7927 50.305C24.2365 49.7762 25.0249 49.7072 25.5538 50.1509L37.0128 59.7662C39.3231 56.6757 42.186 54.0766 45.4228 52.1139C45.2147 52.008 45.0339 51.8426 44.9084 51.6253L37.4084 38.6349C37.0632 38.0371 37.2681 37.2726 37.8659 36.9274C38.4638 36.5822 39.2283 36.7871 39.5735 37.3849L47.0735 50.3753C47.2053 50.6037 47.2569 50.8564 47.237 51.1008C50.768 49.2924 54.6743 48.2126 58.7503 48.0285C58.7501 48.0191 58.75 48.0097 58.75 48.0003V33.0003C58.75 32.3099 59.3096 31.7503 60 31.7503C60.6903 31.7503 61.25 32.3099 61.25 33.0003V48.0003L61.2499 48.0149L61.2497 48.0285C65.4256 48.2171 69.4235 49.3459 73.0222 51.2353C72.9676 50.9507 73.0112 50.6459 73.1674 50.3753L80.6674 37.3849C81.0126 36.7871 81.7771 36.5822 82.375 36.9274C82.9728 37.2726 83.1777 38.0371 82.8325 38.6349L75.3325 51.6253C75.1795 51.8903 74.9441 52.0781 74.6774 52.175C77.919 54.1585 80.7818 56.7817 83.0853 59.8982C83.1197 59.8613 83.1568 59.826 83.1965 59.7927L94.6872 50.1509C95.216 49.7072 96.0044 49.7762 96.4482 50.305C96.8919 50.8338 96.823 51.6223 96.2941 52.066L84.8035 61.7079C84.6961 61.7979 84.5781 61.8669 84.4544 61.9151C86.3283 64.929 87.7091 68.3249 88.4612 71.9928C88.561 72.4801 88.4663 72.9878 88.198 73.4041C87.9298 73.8205 87.5099 74.1114 87.0308 74.2128C86.5517 74.3142 86.0526 74.2179 85.6433 73.9451C85.234 73.6722 84.948 73.2451 84.8483 72.7578C82.3303 60.4766 71.8195 51.7503 60 51.7503Z" fill="white"/>
<path d="M60.1534 87C56.7312 87 53.4492 85.6172 51.0293 83.1558C48.6095 80.6944 47.25 77.356 47.25 73.875C47.25 70.394 48.6095 67.0556 51.0293 64.5942C53.4492 62.1328 56.7312 60.75 60.1534 60.75C63.5756 60.75 66.8577 62.1328 69.2775 64.5942C71.6974 67.0556 73.0569 70.394 73.0569 73.875C73.0569 77.356 71.6974 80.6944 69.2775 83.1558C66.8577 85.6172 63.5756 87 60.1534 87ZM50.9367 73.875C50.9367 76.3614 51.9077 78.746 53.6362 80.5041C55.3647 82.2623 57.709 83.25 60.1534 83.25C62.5979 83.25 64.9422 82.2623 66.6706 80.5041C68.3991 78.746 69.3702 76.3614 69.3702 73.875C69.3702 71.3886 68.3991 69.004 66.6706 67.2459C64.9422 65.4877 62.5979 64.5 60.1534 64.5C57.709 64.5 55.3647 65.4877 53.6362 67.2459C51.9077 69.004 50.9367 71.3886 50.9367 73.875Z" fill="white"/>
</svg>
