<svg width="60" height="120" viewBox="0 0 60 120" fill="none" xmlns="http://www.w3.org/2000/svg">
<path fill-rule="evenodd" clip-rule="evenodd" d="M60 120C26.8629 120 0 93.1371 0 60C0 26.8629 26.8629 0 60 0V120ZM36.375 60.7862V71.4L31.425 68.8684V60.8491L24.3279 51.6977C24.2241 51.5669 24.1417 51.4114 24.0854 51.2401C24.0292 51.0687 24.0001 50.8849 24 50.6992V49.3862C24 49.1777 24.0652 48.9777 24.1812 48.8303C24.2973 48.6828 24.4546 48.6 24.6187 48.6H43.1812C43.3453 48.6 43.5027 48.6828 43.6187 48.8303C43.7347 48.9777 43.7999 49.1777 43.7999 49.3862V50.7228C43.8016 50.9123 43.7734 51.1003 43.7171 51.2758C43.6608 51.4514 43.5775 51.6108 43.472 51.7448L36.375 60.7862Z" fill="#3F3F3F"/>
</svg>
