<svg width="14" height="12" viewBox="0 0 14 12" fill="none" xmlns="http://www.w3.org/2000/svg">
<path d="M2.78516 6C2.78516 5.0111 3.0784 4.0444 3.62781 3.22215C4.17721 2.39991 4.95811 1.75904 5.87174 1.38061C6.78537 1.00217 7.7907 0.90315 8.76061 1.09608C9.73051 1.289 10.6214 1.76521 11.3207 2.46447C12.02 3.16373 12.4962 4.05465 12.6891 5.02455C12.882 5.99445 12.783 6.99979 12.4046 7.91342C12.0261 8.82705 11.3853 9.60794 10.563 10.1573C9.74076 10.7068 8.77406 11 7.78515 11M2.78516 6L0.999441 3.85714M2.78516 6L5.28516 4.21429" stroke="#FF8B02" stroke-width="1.5"/>
</svg>
