<svg width="43" height="43" viewBox="0 0 43 43" fill="none" xmlns="http://www.w3.org/2000/svg">
<circle cx="21.5" cy="21.5" r="21" stroke="#3F3F3F"/>
<path d="M16.3591 20.3438C17.7351 23.048 19.952 25.2554 22.6562 26.6409L24.7585 24.5387C25.0165 24.2807 25.3987 24.1947 25.7331 24.3094C26.8034 24.6629 27.9596 24.854 29.1445 24.854C29.67 24.854 30.1 25.284 30.1 25.8096V29.1445C30.1 29.67 29.67 30.1 29.1445 30.1C20.1718 30.1 12.9 22.8282 12.9 13.8556C12.9 13.33 13.33 12.9 13.8556 12.9H17.2C17.7256 12.9 18.1556 13.33 18.1556 13.8556C18.1556 15.05 18.3467 16.1967 18.7002 17.2669C18.8054 17.6014 18.7289 17.974 18.4614 18.2416L16.3591 20.3438Z" fill="#3F3F3F"/>
</svg>
