<svg width="148" height="74" viewBox="0 0 148 74" fill="none" xmlns="http://www.w3.org/2000/svg">
<path d="M72.5085 -73.3305C73.3037 -74.2206 74.6963 -74.2206 75.4915 -73.3305L83.0024 -64.9233C83.6354 -64.2147 84.6796 -64.0494 85.5006 -64.5276L95.2419 -70.2024C96.2732 -70.8031 97.5977 -70.3728 98.0789 -69.2806L102.624 -58.9638C103.007 -58.0943 103.949 -57.6144 104.878 -57.8155L115.896 -60.2023C117.062 -60.455 118.189 -59.6364 118.309 -58.449L119.444 -47.2326C119.54 -46.2872 120.287 -45.5397 121.233 -45.4441L132.449 -44.3092C133.636 -44.1891 134.455 -43.0624 134.202 -41.896L131.816 -30.8779C131.614 -29.9492 132.094 -29.0073 132.964 -28.6242L143.281 -24.0789C144.373 -23.5977 144.803 -22.2732 144.202 -21.2419L138.528 -11.5006C138.049 -10.6796 138.215 -9.63543 138.923 -9.0024L147.331 -1.49148C148.221 -0.696335 148.221 0.696335 147.331 1.49148L138.923 9.0024C138.215 9.63543 138.049 10.6796 138.528 11.5006L144.202 21.2419C144.803 22.2732 144.373 23.5977 143.281 24.0789L132.964 28.6242C132.094 29.0073 131.614 29.9492 131.816 30.8779L134.202 41.896C134.455 43.0624 133.636 44.1891 132.449 44.3092L121.233 45.4441C120.287 45.5397 119.54 46.2872 119.444 47.2326L118.309 58.449C118.189 59.6364 117.062 60.455 115.896 60.2023L104.878 57.8155C103.949 57.6144 103.007 58.0943 102.624 58.9638L98.0789 69.2806C97.5977 70.3728 96.2732 70.8031 95.2419 70.2024L85.5006 64.5276C84.6796 64.0494 83.6354 64.2147 83.0024 64.9233L75.4915 73.3305C74.6963 74.2206 73.3037 74.2206 72.5085 73.3305L64.9976 64.9233C64.3646 64.2147 63.3204 64.0494 62.4994 64.5276L52.7581 70.2024C51.7268 70.8031 50.4023 70.3728 49.9211 69.2806L45.3758 58.9638C44.9927 58.0943 44.0508 57.6144 43.1221 57.8155L32.104 60.2023C30.9376 60.455 29.8109 59.6364 29.6908 58.449L28.5559 47.2326C28.4603 46.2872 27.7128 45.5397 26.7674 45.4441L15.551 44.3092C14.3636 44.1891 13.545 43.0624 13.7977 41.896L16.1845 30.8779C16.3856 29.9492 15.9057 29.0073 15.0362 28.6242L4.71941 24.0789C3.62722 23.5977 3.19686 22.2732 3.79762 21.2419L9.47237 11.5006C9.95064 10.6796 9.78526 9.63543 9.0767 9.0024L0.669467 1.49149C-0.22057 0.696335 -0.22057 -0.696335 0.669467 -1.49149L9.07669 -9.0024C9.78526 -9.63543 9.95065 -10.6796 9.47237 -11.5006L3.79763 -21.2419C3.19686 -22.2732 3.62722 -23.5977 4.71941 -24.0789L15.0362 -28.6242C15.9057 -29.0073 16.3856 -29.9492 16.1845 -30.8779L13.7977 -41.896C13.545 -43.0624 14.3636 -44.1891 15.551 -44.3092L26.7674 -45.4441C27.7128 -45.5397 28.4603 -46.2872 28.5559 -47.2326L29.6908 -58.449C29.8109 -59.6364 30.9376 -60.455 32.104 -60.2023L43.1221 -57.8155C44.0508 -57.6144 44.9927 -58.0943 45.3758 -58.9638L49.9211 -69.2806C50.4023 -70.3728 51.7268 -70.8031 52.7581 -70.2024L62.4994 -64.5276C63.3204 -64.0494 64.3646 -64.2147 64.9976 -64.9233L72.5085 -73.3305Z" fill="#3F3F3F"/>
</svg>
