<svg width="116" height="10" viewBox="0 0 116 10" fill="none" xmlns="http://www.w3.org/2000/svg">
<path d="M0 9.86688H1.75778V6.29829C1.7713 3.62185 1.79834 2.8096 1.92004 3.00933C2.39329 3.84822 6.17927 8.66848 6.36857 8.66848C6.59844 8.66848 10.0058 4.36753 10.6278 3.30228L10.9523 2.74302V9.86688H13.1157V0.0133156H11.2498L8.92412 3.02265C7.2069 5.23304 6.55787 5.99203 6.43618 5.87219C6.35505 5.7923 5.28686 4.46074 4.05642 2.90281L1.81187 0.0798938L0 0V9.86688Z" fill="white"/>
<path d="M36.2374 9.86688H38.536V7.73638C38.536 6.56461 38.5631 5.60588 38.6036 5.60588C38.6307 5.60588 40.0234 6.56461 41.6865 7.73638L44.7153 9.86688H46.4325C47.5007 9.86688 48.1227 9.81362 48.0686 9.73373C48.028 9.66715 46.4055 8.522 44.4854 7.17712C42.5519 5.84556 40.9699 4.71373 40.9699 4.66047C40.9699 4.60721 42.3626 3.59522 44.0798 2.41013C45.7835 1.22504 47.2167 0.199734 47.2708 0.133156C47.3114 0.0665775 46.7029 0.0133149 45.797 0.0133149H44.2556L38.6036 4.14116L38.5225 0.0133149H36.2374V9.86688Z" fill="white"/>
<path d="M15.5495 10H16.1986C16.8206 9.98668 16.8746 9.94674 19.4031 7.84287L21.9722 5.71237L22.0128 7.85618L22.0398 10H23.6624V3.20903H23.0133C22.3643 3.20903 22.3238 3.23566 19.7953 5.32621L17.2397 7.4434L17.1992 5.32621L17.1721 3.20903H15.5495V10Z" fill="white"/>
<path d="M26.0151 3.36882C25.8528 3.43539 25.65 3.64844 25.5689 3.82155C25.4066 4.16775 25.3526 8.76165 25.5013 9.30759C25.6771 9.93342 26.0962 10 29.6118 10C33.3302 10 33.56 9.94674 33.7899 9.09454C33.9792 8.44207 33.9792 4.75364 33.7899 4.10118C33.56 3.27561 33.2626 3.20903 29.5171 3.22234C27.5971 3.22234 26.1774 3.28892 26.0151 3.36882ZM32.0456 8.53528H27.1779V4.67375H32.0456V8.53528Z" fill="white"/>
<path d="M48.8122 10H55.9785V8.53528H50.7052V7.20372H53.6799V5.87215H50.7052V4.67375H55.9785V3.20903H48.8122V10Z" fill="white"/>
<path d="M57.3306 10H59.0749L59.156 7.53661L64.1184 7.40345L64.4429 7.03061C64.7403 6.69772 64.7674 6.53794 64.7674 5.40611C64.7674 4.02128 64.6322 3.58187 64.1319 3.3555C63.9291 3.26229 62.6581 3.20903 60.5758 3.20903H57.3306V10ZM63.1178 5.0599C63.1448 5.21969 63.1313 5.51263 63.0907 5.68574C63.0096 6.00531 62.9961 6.00531 61.049 6.00531H59.0884V4.66043L61.0896 4.70038C63.0637 4.74033 63.0772 4.74033 63.1178 5.0599Z" fill="white"/>
<path d="M70.1355 3.50197C70.0273 3.67508 69.2295 5.0599 68.3506 6.60451C67.4718 8.14913 66.674 9.53395 66.5793 9.69374L66.39 10H68.283L69.0132 8.53528H73.0967L73.4888 9.26764L73.8944 10H74.8815C75.4629 10 75.855 9.94674 75.828 9.86684C75.8145 9.80027 74.9356 8.26897 73.8944 6.48467L72.0014 3.22234L71.1631 3.20903C70.4329 3.20903 70.2977 3.24898 70.1355 3.50197ZM71.7039 5.93873C71.9744 6.49799 72.2042 6.97735 72.2042 7.00398C72.2042 7.04393 71.6904 7.07056 71.0549 7.07056C70.4194 7.07056 69.9056 7.04393 69.9056 7.00398C69.9056 6.8442 71.0144 4.94006 71.109 4.94006C71.1631 4.94006 71.42 5.39279 71.7039 5.93873Z" fill="white"/>
<path d="M77.0719 10H78.424V7.93608C78.424 6.80425 78.4646 5.87215 78.5322 5.87215C78.5863 5.88547 79.1947 6.63115 79.8843 7.53661C80.7226 8.65512 81.2229 9.20106 81.3852 9.20106C81.561 9.20106 82.0748 8.64181 82.9402 7.52329L84.2382 5.83221V10H85.996V3.20903H84.5222L83.0078 5.15311L81.4934 7.11051L81.25 6.79093C81.1283 6.61783 80.4522 5.75231 79.7491 4.87348L78.4781 3.27561L77.0719 3.19571V10Z" fill="white"/>
<path d="M87.6186 10H88.2811C88.9437 10 88.9572 9.98668 91.4992 7.88281L94.0412 5.76563L94.0818 7.88281L94.1088 10H95.7314V3.20903H95.1094C94.5145 3.20903 94.4198 3.27561 92.1077 5.17974C90.7961 6.25831 89.6198 7.21703 89.5116 7.29693C89.3358 7.43008 89.3088 7.1904 89.3628 5.32621L89.4034 3.20903H87.6186V10Z" fill="white"/>
<path d="M97.4892 10H99.247V8.66844C99.247 7.93608 99.2876 7.33687 99.3552 7.33687C99.4092 7.35019 100.275 7.94939 101.275 8.66844L103.101 10H106.062L105.129 9.33422C104.615 8.9747 103.479 8.17576 102.614 7.57656C101.735 6.97735 101.045 6.44473 101.086 6.39146C101.113 6.3382 102.114 5.61916 103.317 4.79359L105.494 3.27561L102.884 3.19571L101.14 4.47401C100.18 5.16643 99.3687 5.739 99.3281 5.739C99.2876 5.739 99.247 5.16643 99.247 4.47401V3.20903H97.4892V10Z" fill="white"/>
<path d="M110.294 3.30224C109.658 4.36749 106.549 9.88016 106.549 9.93342C106.549 9.97337 106.941 10 107.427 10H108.306L109.036 8.53528H113.174L113.904 10H116L112.025 3.20903H111.186C110.727 3.20903 110.321 3.24898 110.294 3.30224ZM111.795 6.00531L112.376 7.07056H109.915L110.483 6.00531C110.808 5.41942 111.092 4.94006 111.132 4.94006C111.173 4.94006 111.47 5.41942 111.795 6.00531Z" fill="white"/>
</svg>
