<?xml version="1.0" encoding="UTF-8"?><!DOCTYPE svg PUBLIC "-//W3C//DTD SVG 1.1//EN" "http://www.w3.org/Graphics/SVG/1.1/DTD/svg11.dtd"><svg xmlns="http://www.w3.org/2000/svg" xmlns:xlink="http://www.w3.org/1999/xlink"><defs>
<clipPath id="clip0">
<rect width="44" height="28.7347" fill="white"/>
</clipPath>
</defs><symbol id="PayPal" viewBox="0 0 85 23">
<path d="M31.6769 4.70386H26.9889C26.8337 4.70376 26.6835 4.76002 26.5655 4.8625C26.4475 4.96499 26.3694 5.10695 26.3452 5.26283L24.4491 17.4856C24.4404 17.5423 24.4439 17.6003 24.4593 17.6555C24.4748 17.7107 24.5018 17.7619 24.5385 17.8055C24.5753 17.849 24.6209 17.884 24.6722 17.908C24.7235 17.9319 24.7793 17.9443 24.8358 17.9442H27.0739C27.2292 17.9443 27.3794 17.8879 27.4974 17.7853C27.6154 17.6827 27.6935 17.5405 27.7175 17.3845L28.2289 14.0879C28.2529 13.932 28.3309 13.7899 28.4488 13.6873C28.5667 13.5847 28.7167 13.5283 28.8719 13.5282H30.356C33.4441 13.5282 35.2263 12.0088 35.6918 8.99789C35.9015 7.68061 35.7007 6.64561 35.094 5.92077C34.4277 5.12483 33.246 4.70386 31.6769 4.70386ZM32.2177 9.16795C31.9614 10.8783 30.6761 10.8783 29.4333 10.8783H28.7259L29.2222 7.6841C29.2367 7.59065 29.2835 7.50554 29.3543 7.44408C29.425 7.38263 29.515 7.34886 29.6081 7.34886H29.9323C30.7789 7.34886 31.5775 7.34886 31.9902 7.83952C32.2362 8.13225 32.3116 8.56716 32.2177 9.16795ZM45.6902 9.11289H43.4453C43.3522 9.11289 43.2622 9.14666 43.1915 9.20811C43.1207 9.26957 43.0739 9.35468 43.0593 9.44813L42.96 10.0866L42.803 9.85516C42.317 9.13798 41.2332 8.89822 40.1515 8.89822C37.6708 8.89822 35.5519 10.8086 35.1393 13.4885C34.9247 14.8253 35.2297 16.1035 35.9756 16.9949C36.6597 17.8146 37.6385 18.1561 38.8032 18.1561C40.802 18.1561 41.9105 16.8492 41.9105 16.8492L41.8104 17.4835C41.8015 17.5402 41.8048 17.5982 41.82 17.6535C41.8353 17.7088 41.8621 17.7601 41.8987 17.8038C41.9353 17.8475 41.9809 17.8826 42.0321 17.9068C42.0834 17.9309 42.1392 17.9434 42.1956 17.9435H44.2178C44.3731 17.9436 44.5233 17.8872 44.6414 17.7846C44.7594 17.682 44.8375 17.5398 44.8615 17.3838L46.0748 9.57149C46.0837 9.51491 46.0805 9.45704 46.0652 9.40186C46.05 9.34669 46.0232 9.29553 45.9866 9.25192C45.9501 9.20832 45.9046 9.1733 45.8535 9.1493C45.8023 9.12529 45.7466 9.11287 45.6902 9.11289ZM42.561 13.5554C42.3444 14.8594 41.3264 15.7348 40.0281 15.7348C39.3762 15.7348 38.8553 15.5222 38.5208 15.1194C38.189 14.7193 38.0629 14.1499 38.1684 13.5156C38.3706 12.2228 39.4057 11.3188 40.6841 11.3188C41.3216 11.3188 41.8399 11.5342 42.1812 11.9405C42.5233 12.351 42.659 12.9239 42.561 13.5554ZM57.6464 9.11289H55.3905C55.2841 9.11306 55.1794 9.13962 55.0854 9.19027C54.9914 9.24091 54.9109 9.31412 54.851 9.40352L51.7396 14.0635L50.4208 9.58543C50.3803 9.44885 50.2976 9.32916 50.185 9.24405C50.0724 9.15895 49.9359 9.11296 49.7956 9.11289H47.5787C47.5165 9.11272 47.4551 9.12767 47.3997 9.15648C47.3443 9.1853 47.2965 9.22715 47.2602 9.27856C47.224 9.32997 47.2003 9.38944 47.1912 9.45203C47.1821 9.51462 47.1878 9.57852 47.2079 9.6384L49.6928 17.0528L47.3566 20.4059C47.3151 20.4653 47.2905 20.5353 47.2855 20.608C47.2804 20.6807 47.2952 20.7535 47.3281 20.8182C47.361 20.883 47.4108 20.9373 47.4721 20.9752C47.5333 21.0132 47.6037 21.0332 47.6754 21.0332H49.9286C50.0338 21.0333 50.1374 21.0075 50.2307 20.958C50.3239 20.9085 50.404 20.8367 50.4639 20.7488L57.9673 9.73668C58.0079 9.6771 58.0318 9.60734 58.0362 9.53496C58.0407 9.46258 58.0256 9.39034 57.9925 9.32607C57.9595 9.26181 57.9097 9.20797 57.8487 9.17039C57.7877 9.13281 57.7178 9.11292 57.6464 9.11289Z" fill="#253B80"/>
<path d="M65.1155 4.70385H60.4268C60.2717 4.70392 60.1217 4.76025 60.0038 4.86272C59.886 4.96519 59.8079 5.10707 59.7838 5.26282L57.8877 17.4856C57.8789 17.5422 57.8823 17.6001 57.8976 17.6553C57.9129 17.7104 57.9398 17.7616 57.9764 17.8052C58.013 17.8488 58.0585 17.8838 58.1097 17.9078C58.1609 17.9318 58.2166 17.9442 58.273 17.9442H60.679C60.7876 17.944 60.8925 17.9045 60.9749 17.8327C61.0574 17.7609 61.1119 17.6615 61.1287 17.5525L61.6668 14.0879C61.6908 13.932 61.7688 13.7899 61.8867 13.6873C62.0046 13.5847 62.1546 13.5283 62.3098 13.5282H63.7932C66.882 13.5282 68.6635 12.0088 69.1297 8.99788C69.3401 7.68061 69.1379 6.64561 68.5312 5.92076C67.8656 5.12482 66.6845 4.70385 65.1155 4.70385ZM65.6563 9.16794C65.4006 10.8783 64.1154 10.8783 62.8719 10.8783H62.1652L62.6621 7.68409C62.6764 7.59064 62.7231 7.50546 62.7937 7.44397C62.8644 7.38248 62.9544 7.34874 63.0474 7.34885H63.3716C64.2175 7.34885 65.0168 7.34885 65.4294 7.83952C65.6755 8.13225 65.7502 8.56716 65.6563 9.16794ZM79.1281 9.11288H76.8846C76.7915 9.11262 76.7014 9.14631 76.6308 9.20783C76.5601 9.26935 76.5134 9.35461 76.4993 9.44812L76.3999 10.0865L76.2423 9.85516C75.7562 9.13797 74.6732 8.89822 73.5915 8.89822C71.1107 8.89822 68.9926 10.8086 68.5799 13.4885C68.366 14.8252 68.6697 16.1035 69.4155 16.9949C70.101 17.8146 71.0785 18.1561 72.2431 18.1561C74.242 18.1561 75.3504 16.8492 75.3504 16.8492L75.2504 17.4835C75.2414 17.5403 75.2447 17.5984 75.2601 17.6538C75.2754 17.7092 75.3024 17.7606 75.3391 17.8043C75.3759 17.8481 75.4216 17.8832 75.473 17.9072C75.5244 17.9312 75.5804 17.9436 75.637 17.9435H77.6585C77.8136 17.9434 77.9637 17.887 78.0816 17.7844C78.1995 17.6817 78.2774 17.5397 78.3014 17.3838L79.5154 9.57149C79.524 9.51473 79.5205 9.45675 79.505 9.40153C79.4894 9.34631 79.4624 9.29516 79.4256 9.25159C79.3888 9.20802 79.3431 9.17307 79.2918 9.14912C79.2404 9.12518 79.1846 9.11282 79.1281 9.11288ZM75.9989 13.5554C75.7837 14.8594 74.7644 15.7348 73.466 15.7348C72.8155 15.7348 72.2932 15.5222 71.9587 15.1194C71.6269 14.7193 71.5021 14.1499 71.6063 13.5156C71.8099 12.2228 72.8436 11.3188 74.122 11.3188C74.7596 11.3188 75.2778 11.5342 75.6192 11.9405C75.9626 12.351 76.0983 12.9239 75.9989 13.5554ZM81.7748 5.03909L79.8506 17.4856C79.8418 17.5422 79.8452 17.6001 79.8605 17.6553C79.8758 17.7104 79.9027 17.7616 79.9393 17.8052C79.9759 17.8488 80.0214 17.8838 80.0726 17.9078C80.1238 17.9318 80.1795 17.9442 80.2359 17.9442H82.1703C82.4918 17.9442 82.7646 17.7072 82.814 17.3845L84.7114 5.16246C84.7202 5.1058 84.7169 5.04788 84.7016 4.99268C84.6863 4.93747 84.6594 4.88628 84.6228 4.84264C84.5862 4.799 84.5407 4.76393 84.4895 4.73986C84.4383 4.71578 84.3826 4.70326 84.3262 4.70316H82.16C82.067 4.70349 81.9772 4.73748 81.9066 4.79904C81.836 4.86059 81.7893 4.9457 81.7748 5.03909Z" fill="#179BD7"/>
<path d="M4.98072 20.3195L5.33923 18.0041L4.54064 17.9853H0.727295L3.37738 0.90049C3.38527 0.848288 3.41134 0.800707 3.45085 0.76642C3.49036 0.732133 3.54067 0.713424 3.59262 0.713702H10.0225C12.1571 0.713702 13.6302 1.16534 14.3993 2.05676C14.7598 2.47494 14.9895 2.91195 15.1005 3.39285C15.2171 3.89746 15.2191 4.50034 15.1053 5.23564L15.0971 5.28931V5.76046L15.4577 5.96816C15.7329 6.10995 15.9803 6.30175 16.1877 6.5341C16.4962 6.89164 16.6956 7.34607 16.78 7.88482C16.867 8.43892 16.8382 9.09825 16.6956 9.8447C16.5311 10.7034 16.2652 11.4512 15.906 12.0632C15.589 12.6114 15.1629 13.0862 14.655 13.4571C14.1779 13.8014 13.611 14.0628 12.97 14.23C12.349 14.3945 11.6409 14.4775 10.8642 14.4775H10.3638C10.006 14.4775 9.65846 14.6085 9.38564 14.8434C9.11321 15.0808 8.93248 15.4087 8.87564 15.7689L8.83794 15.9773L8.20455 20.0581L8.17576 20.2079C8.16822 20.2553 8.1552 20.279 8.136 20.2951C8.11741 20.3105 8.09421 20.3191 8.0702 20.3195H4.98072Z" fill="#253B80"/>
<path d="M15.799 5.34367C15.7798 5.46843 15.7579 5.59598 15.7332 5.72701C14.8853 10.1535 11.9843 11.6826 8.27926 11.6826H6.39281C5.93971 11.6826 5.55789 12.0172 5.48729 12.4716L4.52144 18.6997L4.24793 20.4651C4.23704 20.5352 4.2412 20.6068 4.26012 20.675C4.27905 20.7432 4.3123 20.8065 4.35758 20.8604C4.40286 20.9143 4.45909 20.9576 4.5224 20.9873C4.58572 21.017 4.65461 21.0324 4.72434 21.0325H8.07019C8.4664 21.0325 8.80297 20.7397 8.86535 20.3425L8.89825 20.1696L9.52821 16.1049L9.56866 15.8819C9.63035 15.4832 9.96761 15.1905 10.3638 15.1905H10.8642C14.1059 15.1905 16.6435 13.8523 17.3852 9.97992C17.6951 8.36225 17.5347 7.01152 16.7148 6.06155C16.455 5.76768 16.1446 5.52442 15.799 5.34367Z" fill="#179BD7"/>
<path d="M14.912 4.98403C14.6413 4.9044 14.3658 4.84225 14.0874 4.79794C13.5372 4.71197 12.9811 4.67071 12.4244 4.67458H7.38472C7.19293 4.67443 7.00741 4.74405 6.8617 4.87085C6.71599 4.99766 6.6197 5.17328 6.59025 5.36597L5.51815 12.2702L5.4873 12.4716C5.5207 12.2518 5.63037 12.0514 5.79646 11.9067C5.96255 11.762 6.1741 11.6825 6.39283 11.6826H8.27928C11.9843 11.6826 14.8853 10.1528 15.7332 5.727C15.7586 5.59597 15.7798 5.46843 15.799 5.34367C15.5753 5.22437 15.3421 5.12435 15.1019 5.04467C15.0389 5.02343 14.9756 5.00321 14.912 4.98403Z" fill="#222D65"/>
<path d="M6.59024 5.36597C6.61945 5.17322 6.71568 4.99752 6.86147 4.87078C7.00725 4.74404 7.19291 4.67467 7.38472 4.67527H12.4244C13.0215 4.67527 13.5788 4.715 14.0874 4.79864C14.4316 4.85364 14.771 4.9359 15.1026 5.04467C15.3528 5.129 15.5852 5.22867 15.7997 5.34367C16.052 3.70788 15.7977 2.59412 14.9278 1.58561C13.9688 0.475333 12.2379 0 10.0231 0H3.59331C3.14089 0 2.75496 0.334545 2.68504 0.789667L0.00685398 18.0501C-0.00562056 18.1303 -0.000874421 18.2122 0.0207659 18.2903C0.0424063 18.3684 0.0804272 18.4408 0.132213 18.5025C0.184 18.5642 0.248322 18.6138 0.320756 18.6479C0.39319 18.6819 0.472017 18.6996 0.551814 18.6997H4.52145L5.51814 12.2702L6.59024 5.36597Z" fill="#253B80"/>
</symbol><symbol id="SP" viewBox="0 0 44 29">
<g clip-path="url(#clip0)">
<path d="M34.1072 0.790192H23.4924V28.1744H30.1023V19.5611H34.1072C40.3175 19.5611 43.9228 15.6128 43.9228 10.1757C43.9228 4.73852 40.3175 0.790192 34.1072 0.790192ZM33.4212 13.7522H30.1023V6.59909H33.4212C35.825 6.59909 37.198 7.9155 37.198 10.1757C37.198 12.4367 35.825 13.7522 33.4212 13.7522Z" fill="black"/>
<path d="M12.2177 11.6923C10.1865 11.1194 8.89882 10.6911 8.26845 10.2906C7.75482 9.9476 7.43964 9.46001 7.43964 8.88801C7.43964 7.60033 8.4696 6.62784 10.7872 6.62784C12.9899 6.62784 14.1636 7.5716 14.1636 8.97331H20.8013C20.8013 3.85135 16.5099 0.446289 11.1015 0.446289C7.8976 0.446289 5.43629 1.13413 3.49041 2.79266C1.77351 4.25274 0.743556 6.34139 0.743556 8.94547C0.743556 11.2065 1.43049 12.8372 2.48919 13.9812C3.49041 15.0678 5.5216 16.3563 8.69768 17.2148C10.9884 17.8443 12.6191 18.3309 13.3626 18.8167C14.1348 19.3034 14.336 19.7327 14.336 20.3047C14.336 21.5349 13.1058 22.3646 10.6436 22.3646C8.35376 22.3646 7.12445 21.5061 7.03915 20.0182H0.314331C0.314331 25.1976 4.54911 28.5156 10.6436 28.5156C16.5674 28.5156 21.0303 24.8528 21.0303 20.1888C21.0303 18.4719 20.716 16.9849 19.4849 15.4683C18.3983 14.0962 16.2244 12.866 12.2177 11.6923Z" fill="black"/>
</g>

</symbol><symbol id="basket" viewBox="0 0 24 21">
<path d="M18.75 16.5C19.0625 16.5 19.3555 16.5586 19.6289 16.6758C19.9023 16.793 20.1406 16.9531 20.3438 17.1562C20.5469 17.3594 20.707 17.5977 20.8242 17.8711C20.9414 18.1445 21 18.4375 21 18.75C21 19.0625 20.9414 19.3555 20.8242 19.6289C20.707 19.9023 20.5469 20.1406 20.3438 20.3438C20.1406 20.5469 19.9023 20.707 19.6289 20.8242C19.3555 20.9414 19.0625 21 18.75 21C18.4375 21 18.1445 20.9414 17.8711 20.8242C17.5977 20.707 17.3594 20.5469 17.1562 20.3438C16.9531 20.1406 16.793 19.9023 16.6758 19.6289C16.5586 19.3555 16.5 19.0625 16.5 18.75C16.5 18.5078 16.543 18.2578 16.6289 18H10.3711C10.457 18.2578 10.5 18.5078 10.5 18.75C10.5 19.0625 10.4414 19.3555 10.3242 19.6289C10.207 19.9023 10.0469 20.1406 9.84375 20.3438C9.64062 20.5469 9.40234 20.707 9.12891 20.8242C8.85547 20.9414 8.5625 21 8.25 21C7.9375 21 7.64453 20.9414 7.37109 20.8242C7.09766 20.707 6.85938 20.5469 6.65625 20.3438C6.45312 20.1406 6.29297 19.9023 6.17578 19.6289C6.05859 19.3555 6 19.0625 6 18.75C6 18.3203 6.11328 17.9219 6.33984 17.5547C6.56641 17.1875 6.87891 16.9102 7.27734 16.7227L2.21484 1.5H0V0H3.29297L4.28906 3H24L20.5078 13.5H7.79297L8.78906 16.5H18.75ZM4.79297 4.5L7.28906 12H19.418L21.9141 4.5H4.79297ZM9 18.75C9 18.5469 8.92578 18.3711 8.77734 18.2227C8.62891 18.0742 8.45312 18 8.25 18C8.04688 18 7.87109 18.0742 7.72266 18.2227C7.57422 18.3711 7.5 18.5469 7.5 18.75C7.5 18.9531 7.57422 19.1289 7.72266 19.2773C7.87109 19.4258 8.04688 19.5 8.25 19.5C8.45312 19.5 8.62891 19.4258 8.77734 19.2773C8.92578 19.1289 9 18.9531 9 18.75ZM18.75 19.5C18.9531 19.5 19.1289 19.4258 19.2773 19.2773C19.4258 19.1289 19.5 18.9531 19.5 18.75C19.5 18.5469 19.4258 18.3711 19.2773 18.2227C19.1289 18.0742 18.9531 18 18.75 18C18.5469 18 18.3711 18.0742 18.2227 18.2227C18.0742 18.3711 18 18.5469 18 18.75C18 18.9531 18.0742 19.1289 18.2227 19.2773C18.3711 19.4258 18.5469 19.5 18.75 19.5Z" fill="black"/>
</symbol><symbol id="search" viewBox="0 0 24 24">
<path d="M15.75 0C16.5078 0 17.2383 0.0976563 17.9414 0.292969C18.6445 0.488281 19.3008 0.765625 19.9102 1.125C20.5195 1.48438 21.0742 1.91406 21.5742 2.41406C22.0742 2.91406 22.5078 3.47266 22.875 4.08984C23.2422 4.70703 23.5195 5.36328 23.707 6.05859C23.8945 6.75391 23.9922 7.48438 24 8.25C24 9.00781 23.9023 9.73828 23.707 10.4414C23.5117 11.1445 23.2344 11.8008 22.875 12.4102C22.5156 13.0195 22.0859 13.5742 21.5859 14.0742C21.0859 14.5742 20.5273 15.0078 19.9102 15.375C19.293 15.7422 18.6367 16.0195 17.9414 16.207C17.2461 16.3945 16.5156 16.4922 15.75 16.5C14.7734 16.5 13.8398 16.3359 12.9492 16.0078C12.0586 15.6797 11.2344 15.207 10.4766 14.5898L1.27734 23.7773C1.12891 23.9258 0.953125 24 0.75 24C0.546875 24 0.371094 23.9258 0.222656 23.7773C0.0742188 23.6289 0 23.4531 0 23.25C0 23.0469 0.0742188 22.8711 0.222656 22.7227L9.41016 13.5234C8.79297 12.7734 8.32031 11.9531 7.99219 11.0625C7.66406 10.1719 7.5 9.23438 7.5 8.25C7.5 7.49219 7.59766 6.76172 7.79297 6.05859C7.98828 5.35547 8.26562 4.69922 8.625 4.08984C8.98438 3.48047 9.41406 2.92578 9.91406 2.42578C10.4141 1.92578 10.9727 1.49219 11.5898 1.125C12.207 0.757812 12.8633 0.480469 13.5586 0.292969C14.2539 0.105469 14.9844 0.0078125 15.75 0ZM15.75 15C16.6797 15 17.5547 14.8242 18.375 14.4727C19.1953 14.1211 19.9102 13.6367 20.5195 13.0195C21.1289 12.4023 21.6094 11.6875 21.9609 10.875C22.3125 10.0625 22.4922 9.1875 22.5 8.25C22.5 7.32031 22.3242 6.44531 21.9727 5.625C21.6211 4.80469 21.1367 4.08984 20.5195 3.48047C19.9023 2.87109 19.1875 2.39062 18.375 2.03906C17.5625 1.6875 16.6875 1.50781 15.75 1.5C14.8203 1.5 13.9453 1.67578 13.125 2.02734C12.3047 2.37891 11.5898 2.86328 10.9805 3.48047C10.3711 4.09766 9.89062 4.8125 9.53906 5.625C9.1875 6.4375 9.00781 7.3125 9 8.25C9 9.17969 9.17578 10.0547 9.52734 10.875C9.87891 11.6953 10.3633 12.4102 10.9805 13.0195C11.5977 13.6289 12.3125 14.1094 13.125 14.4609C13.9375 14.8125 14.8125 14.9922 15.75 15Z" fill="black"/>
</symbol></svg>